<svg version="1.1" viewBox="0.0 0.0 445.755905511811 348.96325459317586" fill="none" stroke="none" stroke-linecap="square" stroke-miterlimit="10" xmlns:xlink="http://www.w3.org/1999/xlink" xmlns="http://www.w3.org/2000/svg"><clipPath id="p.0"><path d="m0 0l445.75592 0l0 348.96326l-445.75592 0l0 -348.96326z" clip-rule="nonzero"/></clipPath><g clip-path="url(#p.0)"><path fill="#000000" fill-opacity="0.0" d="m0 0l445.75592 0l0 348.96326l-445.75592 0z" fill-rule="evenodd"/><path fill="#000000" fill-opacity="0.0" d="m13.580052 11.408136l0 326.04724" fill-rule="evenodd"/><path stroke="#000000" stroke-width="1.0" stroke-linejoin="round" stroke-linecap="butt" d="m13.580052 17.408136l0 320.04724" fill-rule="evenodd"/><path fill="#000000" stroke="#000000" stroke-width="1.0" stroke-linecap="butt" d="m15.231785 17.408136l-1.6517324 -4.5380974l-1.6517324 4.5380974z" fill-rule="evenodd"/><path fill="#000000" fill-opacity="0.0" d="m13.580052 337.4449l421.98425 -0.85040283" fill-rule="evenodd"/><path stroke="#000000" stroke-width="1.0" stroke-linejoin="round" stroke-linecap="butt" d="m13.580052 337.4449l415.98425 -0.83828735" fill-rule="evenodd"/><path fill="#000000" stroke="#000000" stroke-width="1.0" stroke-linecap="butt" d="m429.56766 338.2583l4.5347595 -1.6608582l-4.541443 -1.6425781z" fill-rule="evenodd"/><path fill="#000000" fill-opacity="0.0" d="m41.598427 128.57611c10.046585 -20.07248 51.204147 -9.927078 67.07611 5.9448853c32.269188 32.26918 53.74151 86.14462 98.49082 95.09448c51.12709 10.225418 101.16768 -41.49565 132.45143 -83.20734c15.253998 -20.338676 37.211975 -34.66604 55.188995 -52.64305" fill-rule="evenodd"/><path stroke="#000000" stroke-width="1.0" stroke-linejoin="round" stroke-linecap="butt" d="m41.598427 128.57611c10.046585 -20.07248 51.204147 -9.927078 67.07611 5.9448853c32.269188 32.26918 53.74151 86.14462 98.49082 95.09448c51.12709 10.225418 101.16768 -41.49565 132.45143 -83.20734c15.253998 -20.338676 37.211975 -34.66604 55.188995 -52.64305" fill-rule="evenodd"/><path fill="#980000" d="m135.41733 171.88583l0 0c0 -1.8786469 1.4242249 -3.4015808 3.1810913 -3.4015808l0 0c0.84368896 0 1.6528168 0.35838318 2.2493896 0.9962921c0.5965729 0.6379242 0.9317169 1.503128 0.9317169 2.4052887l0 0c0 1.8786316 -1.4242249 3.4015656 -3.1811066 3.4015656l0 0c-1.7568665 0 -3.1810913 -1.522934 -3.1810913 -3.4015656z" fill-rule="evenodd"/><path stroke="#980000" stroke-width="1.0" stroke-linejoin="round" stroke-linecap="butt" d="m135.41733 171.88583l0 0c0 -1.8786469 1.4242249 -3.4015808 3.1810913 -3.4015808l0 0c0.84368896 0 1.6528168 0.35838318 2.2493896 0.9962921c0.5965729 0.6379242 0.9317169 1.503128 0.9317169 2.4052887l0 0c0 1.8786316 -1.4242249 3.4015656 -3.1811066 3.4015656l0 0c-1.7568665 0 -3.1810913 -1.522934 -3.1810913 -3.4015656z" fill-rule="evenodd"/><path fill="#980000" d="m256.70078 220.57349l0 0c0 -1.8786316 1.4242554 -3.4015656 3.1811218 -3.4015656l0 0c0.84365845 0 1.6528015 0.35836792 2.2493591 0.9962921c0.59658813 0.6379242 0.9317322 1.503128 0.9317322 2.4052734l0 0c0 1.8786469 -1.4242249 3.4015808 -3.1810913 3.4015808l0 0c-1.7568665 0 -3.1811218 -1.522934 -3.1811218 -3.4015808z" fill-rule="evenodd"/><path stroke="#980000" stroke-width="1.0" stroke-linejoin="round" stroke-linecap="butt" d="m256.70078 220.57349l0 0c0 -1.8786316 1.4242554 -3.4015656 3.1811218 -3.4015656l0 0c0.84365845 0 1.6528015 0.35836792 2.2493591 0.9962921c0.59658813 0.6379242 0.9317322 1.503128 0.9317322 2.4052734l0 0c0 1.8786469 -1.4242249 3.4015808 -3.1810913 3.4015808l0 0c-1.7568665 0 -3.1811218 -1.522934 -3.1811218 -3.4015808z" fill-rule="evenodd"/><path fill="#000000" fill-opacity="0.0" d="m138.59842 175.2874l0.12599182 162.26772" fill-rule="evenodd"/><path stroke="#000000" stroke-width="1.0" stroke-linejoin="round" stroke-linecap="butt" stroke-dasharray="4.0,3.0" d="m138.59842 175.2874l0.12599182 162.26772" fill-rule="evenodd"/><path fill="#000000" fill-opacity="0.0" d="m259.8819 223.97507l0.34643555 113.480316" fill-rule="evenodd"/><path stroke="#000000" stroke-width="1.0" stroke-linejoin="round" stroke-linecap="butt" stroke-dasharray="4.0,3.0" d="m259.8819 223.97507l0.34643555 113.480316" fill-rule="evenodd"/><path fill="#000000" fill-opacity="0.0" d="m399.90027 95.88845l22.929138 0l0 42.015755l-22.929138 0z" fill-rule="evenodd"/><path fill="#000000" d="m410.52527 122.80845l0 -8.40625l-1.453125 0l0 -1.265625l1.453125 0l0 -1.03125q0 -0.96875 0.171875 -1.453125q0.234375 -0.640625 0.828125 -1.03125q0.59375 -0.390625 1.671875 -0.390625q0.6875 0 1.53125 0.15625l-0.25 1.4375q-0.5 -0.09375 -0.953125 -0.09375q-0.75 0 -1.0625 0.328125q-0.3125 0.3125 -0.3125 1.1875l0 0.890625l1.890625 0l0 1.265625l-1.890625 0l0 8.40625l-1.625 0z" fill-rule="nonzero"/><path fill="#000000" fill-opacity="0.0" d="m171.37007 259.70734l63.65355 0l0 42.015747l-63.65355 0z" fill-rule="evenodd"/><path fill="#000000" d="m180.33882 286.62735l5.125 -13.359375l1.90625 0l5.46875 13.359375l-2.015625 0l-1.546875 -4.046875l-5.59375 0l-1.46875 4.046875l-1.875 0zm3.859375 -5.484375l4.53125 0l-1.40625 -3.703125q-0.625 -1.6875 -0.9375 -2.765625q-0.265625 1.28125 -0.71875 2.546875l-1.46875 3.921875zm9.834198 5.484375l0 -9.671875l1.46875 0l0 1.46875q0.5625 -1.03125 1.03125 -1.359375q0.484375 -0.328125 1.0625 -0.328125q0.828125 0 1.6875 0.53125l-0.5625 1.515625q-0.609375 -0.359375 -1.203125 -0.359375q-0.546875 0 -0.96875 0.328125q-0.421875 0.328125 -0.609375 0.890625q-0.28125 0.875 -0.28125 1.921875l0 5.0625l-1.625 0zm12.853302 -3.109375l1.6875 0.203125q-0.40625 1.484375 -1.484375 2.3125q-1.078125 0.8125 -2.765625 0.8125q-2.125 0 -3.375 -1.296875q-1.234375 -1.3125 -1.234375 -3.671875q0 -2.453125 1.25 -3.796875q1.265625 -1.34375 3.265625 -1.34375q1.9375 0 3.15625 1.328125q1.234375 1.3125 1.234375 3.703125q0 0.15625 0 0.4375l-7.21875 0q0.09375 1.59375 0.90625 2.453125q0.8125 0.84375 2.015625 0.84375q0.90625 0 1.546875 -0.46875q0.640625 -0.484375 1.015625 -1.515625zm-5.390625 -2.65625l5.40625 0q-0.109375 -1.21875 -0.625 -1.828125q-0.78125 -0.953125 -2.03125 -0.953125q-1.125 0 -1.90625 0.765625q-0.765625 0.75 -0.84375 2.015625zm15.453842 4.578125q-0.921875 0.765625 -1.765625 1.09375q-0.828125 0.3125 -1.796875 0.3125q-1.59375 0 -2.453125 -0.78125q-0.859375 -0.78125 -0.859375 -1.984375q0 -0.71875 0.328125 -1.296875q0.328125 -0.59375 0.84375 -0.9375q0.53125 -0.359375 1.1875 -0.546875q0.46875 -0.125 1.453125 -0.25q1.984375 -0.234375 2.921875 -0.5625q0.015625 -0.34375 0.015625 -0.421875q0 -1.0 -0.46875 -1.421875q-0.625 -0.546875 -1.875 -0.546875q-1.15625 0 -1.703125 0.40625q-0.546875 0.40625 -0.8125 1.421875l-1.609375 -0.21875q0.21875 -1.015625 0.71875 -1.640625q0.5 -0.640625 1.453125 -0.984375q0.953125 -0.34375 2.1875 -0.34375q1.25 0 2.015625 0.296875q0.78125 0.28125 1.140625 0.734375q0.375 0.4375 0.515625 1.109375q0.078125 0.421875 0.078125 1.515625l0 2.1875q0 2.28125 0.109375 2.890625q0.109375 0.59375 0.40625 1.15625l-1.703125 0q-0.265625 -0.515625 -0.328125 -1.1875zm-0.140625 -3.671875q-0.890625 0.375 -2.671875 0.625q-1.015625 0.140625 -1.4375 0.328125q-0.421875 0.1875 -0.65625 0.53125q-0.21875 0.34375 -0.21875 0.78125q0 0.65625 0.5 1.09375q0.5 0.4375 1.453125 0.4375q0.9375 0 1.671875 -0.40625q0.75 -0.421875 1.09375 -1.140625q0.265625 -0.5625 0.265625 -1.640625l0 -0.609375z" fill-rule="nonzero"/><path fill="#000000" fill-opacity="0.0" d="m135.41733 137.9042l39.496063 0l0 42.015747l-39.496063 0z" fill-rule="evenodd"/><path fill="#000000" d="m144.38608 164.8242l5.125 -13.359375l1.90625 0l5.46875 13.359375l-2.015625 0l-1.546875 -4.046875l-5.59375 0l-1.46875 4.046875l-1.875 0zm3.859375 -5.484375l4.53125 0l-1.40625 -3.703125q-0.625 -1.6875 -0.9375 -2.765625q-0.265625 1.28125 -0.71875 2.546875l-1.46875 3.921875z" fill-rule="nonzero"/><path fill="#000000" fill-opacity="0.0" d="m246.39633 179.91995l39.496063 0l0 42.015747l-39.496063 0z" fill-rule="evenodd"/><path fill="#000000" d="m256.7557 206.83995l0 -13.359375l5.015625 0q1.53125 0 2.453125 0.40625q0.921875 0.40625 1.4375 1.25q0.53125 0.84375 0.53125 1.765625q0 0.859375 -0.46875 1.625q-0.453125 0.75 -1.390625 1.203125q1.203125 0.359375 1.859375 1.21875q0.65625 0.859375 0.65625 2.015625q0 0.9375 -0.40625 1.75q-0.390625 0.796875 -0.984375 1.234375q-0.578125 0.4375 -1.453125 0.671875q-0.875 0.21875 -2.15625 0.21875l-5.09375 0zm1.78125 -7.75l2.875 0q1.1875 0 1.6875 -0.140625q0.671875 -0.203125 1.015625 -0.671875q0.34375 -0.46875 0.34375 -1.171875q0 -0.65625 -0.328125 -1.15625q-0.3125 -0.515625 -0.90625 -0.703125q-0.59375 -0.1875 -2.03125 -0.1875l-2.65625 0l0 4.03125zm0 6.171875l3.3125 0q0.859375 0 1.203125 -0.0625q0.609375 -0.109375 1.015625 -0.359375q0.421875 -0.265625 0.6875 -0.75q0.265625 -0.484375 0.265625 -1.125q0 -0.75 -0.390625 -1.296875q-0.375 -0.546875 -1.0625 -0.765625q-0.671875 -0.234375 -1.953125 -0.234375l-3.078125 0l0 4.59375z" fill-rule="nonzero"/></g></svg>