<svg version="1.1" viewBox="0.0 0.0 349.37795275590554 100.0" fill="none" stroke="none" stroke-linecap="square" stroke-miterlimit="10" xmlns:xlink="http://www.w3.org/1999/xlink" xmlns="http://www.w3.org/2000/svg"><clipPath id="p.0"><path d="m0 0l349.37796 0l0 100.0l-349.37796 0l0 -100.0z" clip-rule="nonzero"/></clipPath><g clip-path="url(#p.0)"><path fill="#000000" fill-opacity="0.0" d="m0 0l349.37796 0l0 100.0l-349.37796 0z" fill-rule="evenodd"/><path fill="#000000" fill-opacity="0.0" d="m15.855643 48.750656l282.74014 -0.40945053" fill-rule="evenodd"/><path stroke="#000000" stroke-width="1.0" stroke-linejoin="round" stroke-linecap="butt" d="m15.855643 48.750656l276.74014 -0.40076065" fill-rule="evenodd"/><path fill="#000000" stroke="#000000" stroke-width="1.0" stroke-linecap="butt" d="m292.5982 50.001625l4.5357056 -1.6583023l-4.540497 -1.6451569z" fill-rule="evenodd"/><path fill="#000000" fill-opacity="0.0" d="m298.5958 30.918634l27.181122 0l0 42.015747l-27.181122 0z" fill-rule="evenodd"/><path fill="#000000" d="m307.73642 57.838634l3.53125 -5.03125l-3.265625 -4.640625l2.046875 0l1.484375 2.265625q0.421875 0.640625 0.671875 1.078125q0.40625 -0.59375 0.734375 -1.0625l1.640625 -2.28125l1.953125 0l-3.34375 4.546875l3.59375 5.125l-2.015625 0l-1.984375 -3.0l-0.515625 -0.8125l-2.546875 3.8125l-1.984375 0z" fill-rule="nonzero"/><path fill="#000000" fill-opacity="0.0" d="m93.79527 39.43307l41.291336 0l0 35.559055l-41.291336 0z" fill-rule="evenodd"/><path fill="#000000" d="m102.88902 61.23307l2.53125 -3.59375l-2.34375 -3.3125l1.46875 0l1.0625 1.609375q0.296875 0.46875 0.484375 0.78125q0.28125 -0.4375 0.515625 -0.765625l1.171875 -1.625l1.40625 0l-2.390625 3.25l2.5625 3.65625l-1.4375 0l-1.421875 -2.140625l-0.375 -0.59375l-1.8125 2.734375l-1.421875 0zm11.5390625 0l-1.171875 0l0 -7.46875q-0.421875 0.40625 -1.109375 0.8125q-0.6875 0.40625 -1.234375 0.609375l0 -1.140625q0.984375 -0.453125 1.71875 -1.109375q0.734375 -0.671875 1.03125 -1.28125l0.765625 0l0 9.578125z" fill-rule="nonzero"/><path fill="#000000" fill-opacity="0.0" d="m132.54897 39.43307l65.95276 0l0 35.559055l-65.95276 0z" fill-rule="evenodd"/><path fill="#000000" d="m141.64272 61.23307l2.53125 -3.59375l-2.34375 -3.3125l1.46875 0l1.0625 1.609375q0.296875 0.46875 0.484375 0.78125q0.28125 -0.4375 0.515625 -0.765625l1.171875 -1.625l1.40625 0l-2.390625 3.25l2.5625 3.65625l-1.4375 0l-1.421875 -2.140625l-0.375 -0.59375l-1.8125 2.734375l-1.421875 0zm11.5390625 0l-1.171875 0l0 -7.46875q-0.421875 0.40625 -1.109375 0.8125q-0.6875 0.40625 -1.234375 0.609375l0 -1.140625q0.984375 -0.453125 1.71875 -1.109375q0.734375 -0.671875 1.03125 -1.28125l0.765625 0l0 9.578125zm5.7874756 -1.546875l0 -2.609375l-2.609375 0l0 -1.09375l2.609375 0l0 -2.59375l1.09375 0l0 2.59375l2.609375 0l0 1.09375l-2.609375 0l0 2.609375l-1.09375 0zm5.6427917 1.546875l0 -1.328125l1.34375 0l0 1.328125l-1.34375 0zm3.7029877 0l0 -1.328125l1.34375 0l0 1.328125l-1.34375 0zm3.7029877 0l0 -1.328125l1.34375 0l0 1.328125l-1.34375 0z" fill-rule="nonzero"/><path fill="#980000" d="m110.149605 48.545933l0 0c0 -0.47835922 0.3807373 -0.8661423 0.8503952 -0.8661423l0 0c0.22554016 0 0.44184113 0.09125519 0.60131836 0.253685c0.15947723 0.16243362 0.24907684 0.38274002 0.24907684 0.6124573l0 0c0 0.4783554 -0.3807373 0.8661423 -0.8503952 0.8661423l0 0c-0.4696579 0 -0.8503952 -0.38778687 -0.8503952 -0.8661423z" fill-rule="evenodd"/><path stroke="#980000" stroke-width="3.0" stroke-linejoin="round" stroke-linecap="butt" d="m110.149605 48.545933l0 0c0 -0.47835922 0.3807373 -0.8661423 0.8503952 -0.8661423l0 0c0.22554016 0 0.44184113 0.09125519 0.60131836 0.253685c0.15947723 0.16243362 0.24907684 0.38274002 0.24907684 0.6124573l0 0c0 0.4783554 -0.3807373 0.8661423 -0.8503952 0.8661423l0 0c-0.4696579 0 -0.8503952 -0.38778687 -0.8503952 -0.8661423z" fill-rule="evenodd"/><path fill="#980000" d="m151.93964 48.545933l0 0c0 -0.47835922 0.3807373 -0.8661423 0.8503876 -0.8661423l0 0c0.22554016 0 0.44184875 0.09125519 0.60131836 0.253685c0.15948486 0.16243362 0.24908447 0.38274002 0.24908447 0.6124573l0 0c0 0.4783554 -0.3807373 0.8661423 -0.85040283 0.8661423l0 0c-0.46965027 0 -0.8503876 -0.38778687 -0.8503876 -0.8661423z" fill-rule="evenodd"/><path stroke="#980000" stroke-width="3.0" stroke-linejoin="round" stroke-linecap="butt" d="m151.93964 48.545933l0 0c0 -0.47835922 0.3807373 -0.8661423 0.8503876 -0.8661423l0 0c0.22554016 0 0.44184875 0.09125519 0.60131836 0.253685c0.15948486 0.16243362 0.24908447 0.38274002 0.24908447 0.6124573l0 0c0 0.4783554 -0.3807373 0.8661423 -0.85040283 0.8661423l0 0c-0.46965027 0 -0.8503876 -0.38778687 -0.8503876 -0.8661423z" fill-rule="evenodd"/></g></svg>