<svg xmlns="http://www.w3.org/2000/svg" xmlns:xlink="http://www.w3.org/1999/xlink" xmlns:lucid="lucid" width="800" height="360"><g transform="translate(6.54023148793749 -98.20387672570075)" lucid:page-tab-id="0_0"><path d="M493.46 398.2c0 22.1-17.9 40-40 40s-40-17.9-40-40 17.9-40 40-40 40 17.9 40 40z" stroke="#3a414a" fill="#fff"/><use xlink:href="#a" transform="matrix(1,0,0,1,418.4597685120625,363.20387672570075) translate(23.271604938271604 39.65277777777778)"/><path d="M733.46 298.2c0 22.1-17.9 40-40 40s-40-17.9-40-40 17.9-40 40-40 40 17.9 40 40z" stroke="#3a414a" fill="#fff"/><use xlink:href="#b" transform="matrix(1,0,0,1,658.4597685120625,263.20387672570075) translate(23.271604938271604 39.65277777777778)"/><path d="M134.46 398.2l5.45-.12 5.65-.35 5.38-.57 5.16-.76 4.97-.95 4.83-1.13 4.7-1.32 4.63-1.5 4.54-1.7 4.5-1.88 4.48-2.1 4.5-2.36 4.52-2.6 4.6-2.93 4.7-3.27 4.86-3.7 5.07-4.2 5.37-4.83 5.8-5.68 6.43-6.86 7.48-8.68 9.58-12.13 53.18-72.9 7.48-8.68 6.43-6.86 5.8-5.68 5.37-4.84 5.07-4.2 4.85-3.7 4.7-3.26 4.6-2.92 4.53-2.62 4.5-2.34 4.47-2.1 4.5-1.9 4.54-1.7 4.6-1.5 4.72-1.3 4.83-1.14 4.98-.95 5.16-.75.6-.07" stroke="#3a414a" stroke-linejoin="round" fill="none"/><path d="M134.5 398.7h-.57l.03-.5-.02-.5h.53z" stroke="#3a414a" stroke-width=".05" fill="#3a414a"/><path d="M411.34 198.3l-13.96 5.48-.55-9.26z" stroke="#3a414a" fill="#3a414a"/><path d="M134.46 198.2h262.12" stroke="#3a414a" fill="none"/><path d="M134.47 198.7h-.54l.03-.5-.02-.5h.53z" stroke="#3a414a" stroke-width=".05" fill="#3a414a"/><path d="M411.34 198.2l-14.26 4.64v-9.27z" stroke="#3a414a" fill="#3a414a"/><path d="M134.46 398.2h262.12" stroke="#3a414a" stroke-linejoin="round" fill="none"/><path d="M134.48 398.7h-.55l.03-.5-.02-.5h.54z" stroke="#3a414a" stroke-width=".05" fill="#3a414a"/><path d="M411.34 398.2l-14.26 4.64v-9.27z" stroke="#3a414a" fill="#3a414a"/><path d="M494.46 198.2l3.35.08 3.63.23 3.43.37 3.28.48 3.14.6 3.03.7 2.95.83 2.87.94 2.82 1.05 2.78 1.17 2.77 1.3 2.77 1.45 2.8 1.6 2.85 1.82 2.94 2.04 3.05 2.32 3.25 2.68 3.5 3.16 3.93 3.85 4.7 5.02 6.72 7.8 23.63 28.8 4.7 5.03 3.94 3.86 3.5 3.15 3.24 2.68 3.06 2.32 2.94 2.04 2.85 1.8 2.8 1.62 2.77 1.45 2.78 1.3 2.78 1.17 2.82 1.05 2.87.92 2.94.82 3.04.7 1.04.2" stroke="#3a414a" stroke-linejoin="round" fill="none"/><path d="M494.5 197.7l-.04 1h-.53l.03-.5-.02-.5z" stroke="#3a414a" stroke-width=".05" fill="#3a414a"/><path d="M651.35 298.05l-14.64 3.26.9-9.22z" stroke="#3a414a" fill="#3a414a"/><path d="M494.46 398.2l3.35-.08 3.63-.22 3.43-.36 3.28-.5 3.14-.6 3.03-.7 2.95-.82 2.87-.93 2.82-1.06 2.78-1.17 2.77-1.3 2.77-1.45 2.8-1.62 2.85-1.8 2.94-2.05 3.05-2.32 3.25-2.68 3.5-3.16 3.93-3.87 4.7-5.02 6.72-7.8 23.63-28.8 4.7-5.03 3.94-3.85 3.5-3.16 3.24-2.68 3.06-2.32 2.94-2.04 2.85-1.8 2.8-1.63 2.77-1.46 2.78-1.3 2.78-1.17 2.82-1.05 2.87-.94 2.94-.82 3.04-.7 1.04-.2" stroke="#3a414a" stroke-linejoin="round" fill="none"/><path d="M494.5 398.7h-.57l.03-.5-.02-.5h.52z" stroke="#3a414a" stroke-width=".05" fill="#3a414a"/><path d="M651.35 298.36l-13.76 5.97-.9-9.23z" stroke="#3a414a" fill="#3a414a"/><path d="M133.46 398.2c0 22.1-17.9 40-40 40s-40-17.9-40-40 17.9-40 40-40 40 17.9 40 40z" stroke="#3a414a" fill="#fff"/><use xlink:href="#c" transform="matrix(1,0,0,1,58.45976851206251,363.20387672570075) translate(23.271604938271604 39.65277777777778)"/><path d="M141.46 318.2c17.67 0 32 8.96 32 20 0 11.05-14.33 20-32 20h-96c-17.67 0-32-8.95-32-20 0-11.04 14.33-20 32-20z" fill="#fff"/><use xlink:href="#d" transform="matrix(1,0,0,1,18.45976851206251,323.20387672570075) translate(51.23956790123457 19.65277777777778)"/><path d="M133.46 198.2c0 22.1-17.9 40-40 40s-40-17.9-40-40 17.9-40 40-40 40 17.9 40 40z" stroke="#3a414a" fill="#fff"/><use xlink:href="#e" transform="matrix(1,0,0,1,58.45976851206251,163.20387672570075) translate(23.271604938271604 39.65277777777778)"/><path d="M141.46 118.2c17.67 0 32 8.96 32 20 0 11.05-14.33 20-32 20h-96c-17.67 0-32-8.95-32-20 0-11.04 14.33-20 32-20z" fill="#fff"/><use xlink:href="#f" transform="matrix(1,0,0,1,18.45976851206251,123.20387672570075) translate(51.23956790123457 19.65277777777778)"/><path d="M493.46 198.2c0 22.1-17.9 40-40 40s-40-17.9-40-40 17.9-40 40-40 40 17.9 40 40z" stroke="#3a414a" fill="#fff"/><use xlink:href="#g" transform="matrix(1,0,0,1,418.4597685120625,163.20387672570075) translate(23.271604938271604 39.65277777777778)"/><path d="M501.46 118.2c17.67 0 32 8.96 32 20 0 11.05-14.33 20-32 20h-96c-17.67 0-32-8.95-32-20 0-11.04 14.33-20 32-20z" fill="#fff"/><use xlink:href="#h" transform="matrix(1,0,0,1,378.4597685120625,123.20387672570075) translate(29.017345679012344 19.65277777777778)"/><path d="M501.46 318.2c17.67 0 32 8.96 32 20 0 11.05-14.33 20-32 20h-96c-17.67 0-32-8.95-32-20 0-11.04 14.33-20 32-20z" fill="#fff"/><use xlink:href="#i" transform="matrix(1,0,0,1,378.45976851206234,323.20387672570075) translate(23.554382716049368 19.65277777777778)"/><path d="M741.46 218.2c17.67 0 32 8.96 32 20 0 11.05-14.33 20-32 20h-96c-17.67 0-32-8.95-32-20 0-11.04 14.33-20 32-20z" fill="#fff"/><use xlink:href="#j" transform="matrix(1,0,0,1,618.4597685120625,223.20387672570075) translate(26.85685185185185 19.65277777777778)"/><defs><path fill="#3a414a" d="M108 0H70L1-190h34L89-25l56-165h34" id="k"/><path fill="#3a414a" d="M155-56V0h-30v-56H8v-25l114-167h33v167h35v25h-35zm-30-156c-27 46-58 90-88 131h88v-131" id="l"/><g id="a"><use transform="matrix(0.06172839506172839,0,0,0.06172839506172839,0,0)" xlink:href="#k"/><use transform="matrix(0.06172839506172839,0,0,0.06172839506172839,11.11111111111111,0)" xlink:href="#l"/></g><path fill="#3a414a" d="M54-142c48-35 137-8 131 61C196 18 31 33 14-55l32-4c7 23 22 37 52 37 35-1 51-22 54-58 4-55-73-65-99-34H22l8-134h141v27H59" id="m"/><g id="b"><use transform="matrix(0.06172839506172839,0,0,0.06172839506172839,0,0)" xlink:href="#k"/><use transform="matrix(0.06172839506172839,0,0,0.06172839506172839,11.11111111111111,0)" xlink:href="#m"/></g><path fill="#3a414a" d="M101-251c82-7 93 87 43 132L82-64C71-53 59-42 53-27h129V0H18c2-99 128-94 128-182 0-28-16-43-45-43s-46 15-49 41l-32-3c6-41 34-60 81-64" id="n"/><g id="c"><use transform="matrix(0.06172839506172839,0,0,0.06172839506172839,0,0)" xlink:href="#k"/><use transform="matrix(0.06172839506172839,0,0,0.06172839506172839,11.11111111111111,0)" xlink:href="#n"/></g><path fill="#3a414a" d="M18-150v-26h174v26H18zm0 90v-26h174v26H18" id="o"/><path fill="#3a414a" d="M179-190L93 31C79 59 56 82 12 73V49c39 6 53-20 64-50L1-190h34L92-34l54-156h33" id="p"/><g id="d"><use transform="matrix(0.06172839506172839,0,0,0.06172839506172839,0,0)" xlink:href="#k"/><use transform="matrix(0.06172839506172839,0,0,0.06172839506172839,11.11111111111111,0)" xlink:href="#n"/><use transform="matrix(0.06172839506172839,0,0,0.06172839506172839,23.45679012345679,0)" xlink:href="#o"/><use transform="matrix(0.06172839506172839,0,0,0.06172839506172839,36.41975308641975,0)" xlink:href="#p"/></g><path fill="#3a414a" d="M27 0v-27h64v-190l-56 39v-29l58-41h29v221h61V0H27" id="q"/><g id="e"><use transform="matrix(0.06172839506172839,0,0,0.06172839506172839,0,0)" xlink:href="#k"/><use transform="matrix(0.06172839506172839,0,0,0.06172839506172839,11.11111111111111,0)" xlink:href="#q"/></g><path fill="#3a414a" d="M141 0L90-78 38 0H4l68-98-65-92h35l48 74 47-74h35l-64 92 68 98h-35" id="r"/><g id="f"><use transform="matrix(0.06172839506172839,0,0,0.06172839506172839,0,0)" xlink:href="#k"/><use transform="matrix(0.06172839506172839,0,0,0.06172839506172839,11.11111111111111,0)" xlink:href="#q"/><use transform="matrix(0.06172839506172839,0,0,0.06172839506172839,23.45679012345679,0)" xlink:href="#o"/><use transform="matrix(0.06172839506172839,0,0,0.06172839506172839,36.41975308641975,0)" xlink:href="#r"/></g><path fill="#3a414a" d="M126-127c33 6 58 20 58 59 0 88-139 92-164 29-3-8-5-16-6-25l32-3c6 27 21 44 54 44 32 0 52-15 52-46 0-38-36-46-79-43v-28c39 1 72-4 72-42 0-27-17-43-46-43-28 0-47 15-49 41l-32-3c6-42 35-63 81-64 48-1 79 21 79 65 0 36-21 52-52 59" id="s"/><g id="g"><use transform="matrix(0.06172839506172839,0,0,0.06172839506172839,0,0)" xlink:href="#k"/><use transform="matrix(0.06172839506172839,0,0,0.06172839506172839,11.11111111111111,0)" xlink:href="#s"/></g><path fill="#3a414a" d="M80-196l47-18 7 23-49 13 32 44-20 13-27-46-27 45-21-12 33-44-49-13 8-23 47 19-2-53h23" id="t"/><g id="h"><use transform="matrix(0.06172839506172839,0,0,0.06172839506172839,0,0)" xlink:href="#k"/><use transform="matrix(0.06172839506172839,0,0,0.06172839506172839,11.11111111111111,0)" xlink:href="#s"/><use transform="matrix(0.06172839506172839,0,0,0.06172839506172839,23.45679012345679,0)" xlink:href="#o"/><use transform="matrix(0.06172839506172839,0,0,0.06172839506172839,36.41975308641975,0)" xlink:href="#k"/><use transform="matrix(0.06172839506172839,0,0,0.06172839506172839,47.53086419753086,0)" xlink:href="#q"/><use transform="matrix(0.06172839506172839,0,0,0.06172839506172839,59.87654320987654,0)" xlink:href="#t"/><use transform="matrix(0.06172839506172839,0,0,0.06172839506172839,68.5185185185185,0)" xlink:href="#k"/><use transform="matrix(0.06172839506172839,0,0,0.06172839506172839,79.62962962962962,0)" xlink:href="#n"/></g><path fill="#3a414a" d="M135-143c-3-34-86-38-87 0 15 53 115 12 119 90S17 21 10-45l28-5c4 36 97 45 98 0-10-56-113-15-118-90-4-57 82-63 122-42 12 7 21 19 24 35" id="u"/><path fill="#3a414a" d="M24-231v-30h32v30H24zM24 0v-190h32V0H24" id="v"/><path fill="#3a414a" d="M117-194c89-4 53 116 60 194h-32v-121c0-31-8-49-39-48C34-167 62-67 57 0H25l-1-190h30c1 10-1 24 2 32 11-22 29-35 61-36" id="w"/><path fill="#3a414a" d="M87 75C49 33 22-17 22-94c0-76 28-126 65-167h31c-38 41-64 92-64 168S80 34 118 75H87" id="x"/><path fill="#3a414a" d="M33-261c38 41 65 92 65 168S71 34 33 75H2C39 34 66-17 66-93S39-220 2-261h31" id="y"/><g id="i"><use transform="matrix(0.06172839506172839,0,0,0.06172839506172839,0,0)" xlink:href="#k"/><use transform="matrix(0.06172839506172839,0,0,0.06172839506172839,11.11111111111111,0)" xlink:href="#l"/><use transform="matrix(0.06172839506172839,0,0,0.06172839506172839,23.45679012345679,0)" xlink:href="#o"/><use transform="matrix(0.06172839506172839,0,0,0.06172839506172839,36.41975308641975,0)" xlink:href="#u"/><use transform="matrix(0.06172839506172839,0,0,0.06172839506172839,47.53086419753086,0)" xlink:href="#v"/><use transform="matrix(0.06172839506172839,0,0,0.06172839506172839,52.407407407407405,0)" xlink:href="#w"/><use transform="matrix(0.06172839506172839,0,0,0.06172839506172839,64.75308641975309,0)" xlink:href="#x"/><use transform="matrix(0.06172839506172839,0,0,0.06172839506172839,72.09876543209877,0)" xlink:href="#k"/><use transform="matrix(0.06172839506172839,0,0,0.06172839506172839,83.20987654320989,0)" xlink:href="#n"/><use transform="matrix(0.06172839506172839,0,0,0.06172839506172839,95.55555555555557,0)" xlink:href="#y"/></g><path fill="#3a414a" d="M118-107v75H92v-75H18v-26h74v-75h26v75h74v26h-74" id="z"/><g id="j"><use transform="matrix(0.06172839506172839,0,0,0.06172839506172839,0,0)" xlink:href="#k"/><use transform="matrix(0.06172839506172839,0,0,0.06172839506172839,11.11111111111111,0)" xlink:href="#m"/><use transform="matrix(0.06172839506172839,0,0,0.06172839506172839,23.45679012345679,0)" xlink:href="#o"/><use transform="matrix(0.06172839506172839,0,0,0.06172839506172839,36.41975308641975,0)" xlink:href="#k"/><use transform="matrix(0.06172839506172839,0,0,0.06172839506172839,47.53086419753086,0)" xlink:href="#s"/><use transform="matrix(0.06172839506172839,0,0,0.06172839506172839,59.87654320987654,0)" xlink:href="#z"/><use transform="matrix(0.06172839506172839,0,0,0.06172839506172839,72.83950617283949,0)" xlink:href="#k"/><use transform="matrix(0.06172839506172839,0,0,0.06172839506172839,83.9506172839506,0)" xlink:href="#l"/></g></defs></g></svg>