<svg version="1.1" viewBox="0.0 0.0 330.8530183727034 220.71391076115486" fill="none" stroke="none" stroke-linecap="square" stroke-miterlimit="10" xmlns:xlink="http://www.w3.org/1999/xlink" xmlns="http://www.w3.org/2000/svg"><clipPath id="p.0"><path d="m0 0l330.85303 0l0 220.71391l-330.85303 0l0 -220.71391z" clip-rule="nonzero"/></clipPath><g clip-path="url(#p.0)"><path fill="#000000" fill-opacity="0.0" d="m0 0l330.85303 0l0 220.71391l-330.85303 0z" fill-rule="evenodd"/><path fill="#000000" fill-opacity="0.0" d="m13.580052 11.408924l0 195.2126" fill-rule="evenodd"/><path stroke="#000000" stroke-width="1.0" stroke-linejoin="round" stroke-linecap="butt" d="m13.580052 17.408924l0 189.2126" fill-rule="evenodd"/><path fill="#000000" stroke="#000000" stroke-width="1.0" stroke-linecap="butt" d="m15.231785 17.408922l-1.6517324 -4.5380964l-1.6517324 4.5380964z" fill-rule="evenodd"/><path fill="#000000" fill-opacity="0.0" d="m13.580052 207.48425l303.62204 -1.3228302" fill-rule="evenodd"/><path stroke="#000000" stroke-width="1.0" stroke-linejoin="round" stroke-linecap="butt" d="m13.580052 207.48425l297.6221 -1.2966919" fill-rule="evenodd"/><path fill="#000000" stroke="#000000" stroke-width="1.0" stroke-linecap="butt" d="m311.20935 207.83928l4.5308533 -1.6714935l-4.5452576 -1.6319427z" fill-rule="evenodd"/><path fill="#000000" fill-opacity="0.0" d="m56.800526 90.24278l0.9133835 116.377945" fill-rule="evenodd"/><path stroke="#000000" stroke-width="1.0" stroke-linejoin="round" stroke-linecap="butt" stroke-dasharray="4.0,3.0" d="m56.800526 90.24278l0.9133835 116.377945" fill-rule="evenodd"/><path fill="#000000" fill-opacity="0.0" d="m31.005249 48.227036l39.496063 0l0 42.015747l-39.496063 0z" fill-rule="evenodd"/><path fill="#000000" d="m39.974 75.14703l5.125 -13.359375l1.90625 0l5.46875 13.359375l-2.015625 0l-1.546875 -4.046875l-5.59375 0l-1.46875 4.046875l-1.875 0zm3.859375 -5.484375l4.53125 0l-1.40625 -3.703125q-0.625 -1.6875 -0.9375 -2.765625q-0.265625 1.28125 -0.71875 2.546875l-1.46875 3.921875z" fill-rule="nonzero"/><path fill="#000000" fill-opacity="0.0" d="m56.391075 86.7874c81.656334 27.245811 167.23306 50.2231 253.31494 50.2231" fill-rule="evenodd"/><path stroke="#000000" stroke-width="1.0" stroke-linejoin="round" stroke-linecap="butt" d="m56.391075 86.7874c81.656334 27.245811 167.23306 50.2231 253.31494 50.2231" fill-rule="evenodd"/><path fill="#980000" d="m53.619423 86.84121l0 0c0 -1.8786392 1.4242287 -3.4015732 3.1811028 -3.4015732l0 0c0.84368134 0 1.6528053 0.35837555 2.2493782 0.9962921c0.5965729 0.6379242 0.93172455 1.503128 0.93172455 2.405281l0 0c0 1.8786392 -1.4242287 3.4015732 -3.1811028 3.4015732l0 0c-1.7568741 0 -3.1811028 -1.522934 -3.1811028 -3.4015732z" fill-rule="evenodd"/><path stroke="#980000" stroke-width="1.0" stroke-linejoin="round" stroke-linecap="butt" d="m53.619423 86.84121l0 0c0 -1.8786392 1.4242287 -3.4015732 3.1811028 -3.4015732l0 0c0.84368134 0 1.6528053 0.35837555 2.2493782 0.9962921c0.5965729 0.6379242 0.93172455 1.503128 0.93172455 2.405281l0 0c0 1.8786392 -1.4242287 3.4015732 -3.1811028 3.4015732l0 0c-1.7568741 0 -3.1811028 -1.522934 -3.1811028 -3.4015732z" fill-rule="evenodd"/><path fill="#000000" fill-opacity="0.0" d="m100.55643 103.88845l1.1968536 102.77166" fill-rule="evenodd"/><path stroke="#000000" stroke-width="1.0" stroke-linejoin="round" stroke-linecap="butt" stroke-dasharray="4.0,3.0" d="m100.55643 103.88845l1.1968536 102.77166" fill-rule="evenodd"/><path fill="#000000" fill-opacity="0.0" d="m59.98163 86.84121l41.66929 0.06298828" fill-rule="evenodd"/><path stroke="#000000" stroke-width="1.0" stroke-linejoin="round" stroke-linecap="butt" stroke-dasharray="1.0,3.0" d="m59.98163 86.84121l41.66929 0.06298828" fill-rule="evenodd"/><path fill="#000000" fill-opacity="0.0" d="m100.55643 87.22835l0 13.228348" fill-rule="evenodd"/><path stroke="#000000" stroke-width="1.0" stroke-linejoin="round" stroke-linecap="butt" stroke-dasharray="1.0,3.0" d="m100.55643 87.22835l0 13.228348" fill-rule="evenodd"/><path fill="#000000" fill-opacity="0.0" d="m57.259842 100.45538l41.66929 0.06298828" fill-rule="evenodd"/><path stroke="#000000" stroke-width="1.0" stroke-linejoin="round" stroke-linecap="butt" stroke-dasharray="1.0,3.0" d="m57.259842 100.45538l41.66929 0.06298828" fill-rule="evenodd"/><path fill="#980000" d="m97.37533 100.48688l0 0c0 -1.8786392 1.4242249 -3.4015732 3.181099 -3.4015732l0 0c0.84368134 0 1.6528091 0.35837555 2.249382 0.9962921c0.5965729 0.6379242 0.93172455 1.503128 0.93172455 2.405281l0 0c0 1.8786392 -1.4242325 3.4015732 -3.1811066 3.4015732l0 0c-1.7568741 0 -3.181099 -1.522934 -3.181099 -3.4015732z" fill-rule="evenodd"/><path stroke="#980000" stroke-width="1.0" stroke-linejoin="round" stroke-linecap="butt" d="m97.37533 100.48688l0 0c0 -1.8786392 1.4242249 -3.4015732 3.181099 -3.4015732l0 0c0.84368134 0 1.6528091 0.35837555 2.249382 0.9962921c0.5965729 0.6379242 0.93172455 1.503128 0.93172455 2.405281l0 0c0 1.8786392 -1.4242325 3.4015732 -3.1811066 3.4015732l0 0c-1.7568741 0 -3.181099 -1.522934 -3.181099 -3.4015732z" fill-rule="evenodd"/><path fill="#000000" fill-opacity="0.0" d="m102.18372 72.833336l39.49607 0l0 42.015747l-39.49607 0z" fill-rule="evenodd"/><path fill="#000000" d="m111.15247 99.753334l5.125 -13.359375l1.90625 0l5.46875 13.359375l-2.015625 0l-1.546875 -4.046875l-5.59375 0l-1.46875 4.046875l-1.875 0zm3.859375 -5.484375l4.53125 0l-1.40625 -3.703125q-0.625 -1.6875 -0.9375 -2.765625q-0.265625 1.28125 -0.71875 2.546875l-1.46875 3.921875zm8.355026 -6.109375l0 -1.890625l1.765625 0l0 1.5q0 1.21875 -0.28125 1.75q-0.390625 0.75 -1.21875 1.109375l-0.40625 -0.640625q0.484375 -0.203125 0.71875 -0.625q0.25 -0.4375 0.28125 -1.203125l-0.859375 0z" fill-rule="nonzero"/></g></svg>