<?xml version="1.0" encoding="utf-8" standalone="no"?>
<!DOCTYPE svg PUBLIC "-//W3C//DTD SVG 1.1//EN"
  "http://www.w3.org/Graphics/SVG/1.1/DTD/svg11.dtd">
<!-- Created with matplotlib (https://matplotlib.org/) -->
<svg height="345.6pt" version="1.1" viewBox="0 0 460.8 345.6" width="460.8pt" xmlns="http://www.w3.org/2000/svg" xmlns:xlink="http://www.w3.org/1999/xlink">
 <metadata>
  <rdf:RDF xmlns:cc="http://creativecommons.org/ns#" xmlns:dc="http://purl.org/dc/elements/1.1/" xmlns:rdf="http://www.w3.org/1999/02/22-rdf-syntax-ns#">
   <cc:Work>
    <dc:type rdf:resource="http://purl.org/dc/dcmitype/StillImage"/>
    <dc:date>2022-07-25T22:58:48.734068</dc:date>
    <dc:format>image/svg+xml</dc:format>
    <dc:creator>
     <cc:Agent>
      <dc:title>Matplotlib v3.3.2, https://matplotlib.org/</dc:title>
     </cc:Agent>
    </dc:creator>
   </cc:Work>
  </rdf:RDF>
 </metadata>
 <defs>
  <style type="text/css">*{stroke-linecap:butt;stroke-linejoin:round;}</style>
 </defs>
 <g id="figure_1">
  <g id="patch_1">
   <path d="M 0 345.6 
L 460.8 345.6 
L 460.8 0 
L 0 0 
z
" style="fill:none;"/>
  </g>
  <g id="axes_1">
   <g id="patch_2">
    <path d="M 57.6 162.432 
L 414.72 162.432 
L 414.72 41.472 
L 57.6 41.472 
z
" style="fill:none;"/>
   </g>
   <g id="matplotlib.axis_1">
    <g id="xtick_1">
     <g id="line2d_1">
      <defs>
       <path d="M 0 0 
L 0 3.5 
" id="mf16f4c1c00" style="stroke:#000000;stroke-width:0.8;"/>
      </defs>
      <g>
       <use style="stroke:#000000;stroke-width:0.8;" x="73.832727" xlink:href="#mf16f4c1c00" y="162.432"/>
      </g>
     </g>
     <g id="text_1">
      <!-- 0 -->
      <g transform="translate(70.651477 177.030437)scale(0.1 -0.1)">
       <defs>
        <path d="M 31.78125 66.40625 
Q 24.171875 66.40625 20.328125 58.90625 
Q 16.5 51.421875 16.5 36.375 
Q 16.5 21.390625 20.328125 13.890625 
Q 24.171875 6.390625 31.78125 6.390625 
Q 39.453125 6.390625 43.28125 13.890625 
Q 47.125 21.390625 47.125 36.375 
Q 47.125 51.421875 43.28125 58.90625 
Q 39.453125 66.40625 31.78125 66.40625 
z
M 31.78125 74.21875 
Q 44.046875 74.21875 50.515625 64.515625 
Q 56.984375 54.828125 56.984375 36.375 
Q 56.984375 17.96875 50.515625 8.265625 
Q 44.046875 -1.421875 31.78125 -1.421875 
Q 19.53125 -1.421875 13.0625 8.265625 
Q 6.59375 17.96875 6.59375 36.375 
Q 6.59375 54.828125 13.0625 64.515625 
Q 19.53125 74.21875 31.78125 74.21875 
z
" id="DejaVuSans-48"/>
       </defs>
       <use xlink:href="#DejaVuSans-48"/>
      </g>
     </g>
    </g>
    <g id="xtick_2">
     <g id="line2d_2">
      <g>
       <use style="stroke:#000000;stroke-width:0.8;" x="125.503103" xlink:href="#mf16f4c1c00" y="162.432"/>
      </g>
     </g>
     <g id="text_2">
      <!-- 1 -->
      <g transform="translate(122.321853 177.030437)scale(0.1 -0.1)">
       <defs>
        <path d="M 12.40625 8.296875 
L 28.515625 8.296875 
L 28.515625 63.921875 
L 10.984375 60.40625 
L 10.984375 69.390625 
L 28.421875 72.90625 
L 38.28125 72.90625 
L 38.28125 8.296875 
L 54.390625 8.296875 
L 54.390625 0 
L 12.40625 0 
z
" id="DejaVuSans-49"/>
       </defs>
       <use xlink:href="#DejaVuSans-49"/>
      </g>
     </g>
    </g>
    <g id="xtick_3">
     <g id="line2d_3">
      <g>
       <use style="stroke:#000000;stroke-width:0.8;" x="177.173479" xlink:href="#mf16f4c1c00" y="162.432"/>
      </g>
     </g>
     <g id="text_3">
      <!-- 2 -->
      <g transform="translate(173.992229 177.030437)scale(0.1 -0.1)">
       <defs>
        <path d="M 19.1875 8.296875 
L 53.609375 8.296875 
L 53.609375 0 
L 7.328125 0 
L 7.328125 8.296875 
Q 12.9375 14.109375 22.625 23.890625 
Q 32.328125 33.6875 34.8125 36.53125 
Q 39.546875 41.84375 41.421875 45.53125 
Q 43.3125 49.21875 43.3125 52.78125 
Q 43.3125 58.59375 39.234375 62.25 
Q 35.15625 65.921875 28.609375 65.921875 
Q 23.96875 65.921875 18.8125 64.3125 
Q 13.671875 62.703125 7.8125 59.421875 
L 7.8125 69.390625 
Q 13.765625 71.78125 18.9375 73 
Q 24.125 74.21875 28.421875 74.21875 
Q 39.75 74.21875 46.484375 68.546875 
Q 53.21875 62.890625 53.21875 53.421875 
Q 53.21875 48.921875 51.53125 44.890625 
Q 49.859375 40.875 45.40625 35.40625 
Q 44.1875 33.984375 37.640625 27.21875 
Q 31.109375 20.453125 19.1875 8.296875 
z
" id="DejaVuSans-50"/>
       </defs>
       <use xlink:href="#DejaVuSans-50"/>
      </g>
     </g>
    </g>
    <g id="xtick_4">
     <g id="line2d_4">
      <g>
       <use style="stroke:#000000;stroke-width:0.8;" x="228.843854" xlink:href="#mf16f4c1c00" y="162.432"/>
      </g>
     </g>
     <g id="text_4">
      <!-- 3 -->
      <g transform="translate(225.662604 177.030437)scale(0.1 -0.1)">
       <defs>
        <path d="M 40.578125 39.3125 
Q 47.65625 37.796875 51.625 33 
Q 55.609375 28.21875 55.609375 21.1875 
Q 55.609375 10.40625 48.1875 4.484375 
Q 40.765625 -1.421875 27.09375 -1.421875 
Q 22.515625 -1.421875 17.65625 -0.515625 
Q 12.796875 0.390625 7.625 2.203125 
L 7.625 11.71875 
Q 11.71875 9.328125 16.59375 8.109375 
Q 21.484375 6.890625 26.8125 6.890625 
Q 36.078125 6.890625 40.9375 10.546875 
Q 45.796875 14.203125 45.796875 21.1875 
Q 45.796875 27.640625 41.28125 31.265625 
Q 36.765625 34.90625 28.71875 34.90625 
L 20.21875 34.90625 
L 20.21875 43.015625 
L 29.109375 43.015625 
Q 36.375 43.015625 40.234375 45.921875 
Q 44.09375 48.828125 44.09375 54.296875 
Q 44.09375 59.90625 40.109375 62.90625 
Q 36.140625 65.921875 28.71875 65.921875 
Q 24.65625 65.921875 20.015625 65.03125 
Q 15.375 64.15625 9.8125 62.3125 
L 9.8125 71.09375 
Q 15.4375 72.65625 20.34375 73.4375 
Q 25.25 74.21875 29.59375 74.21875 
Q 40.828125 74.21875 47.359375 69.109375 
Q 53.90625 64.015625 53.90625 55.328125 
Q 53.90625 49.265625 50.4375 45.09375 
Q 46.96875 40.921875 40.578125 39.3125 
z
" id="DejaVuSans-51"/>
       </defs>
       <use xlink:href="#DejaVuSans-51"/>
      </g>
     </g>
    </g>
    <g id="xtick_5">
     <g id="line2d_5">
      <g>
       <use style="stroke:#000000;stroke-width:0.8;" x="280.51423" xlink:href="#mf16f4c1c00" y="162.432"/>
      </g>
     </g>
     <g id="text_5">
      <!-- 4 -->
      <g transform="translate(277.33298 177.030437)scale(0.1 -0.1)">
       <defs>
        <path d="M 37.796875 64.3125 
L 12.890625 25.390625 
L 37.796875 25.390625 
z
M 35.203125 72.90625 
L 47.609375 72.90625 
L 47.609375 25.390625 
L 58.015625 25.390625 
L 58.015625 17.1875 
L 47.609375 17.1875 
L 47.609375 0 
L 37.796875 0 
L 37.796875 17.1875 
L 4.890625 17.1875 
L 4.890625 26.703125 
z
" id="DejaVuSans-52"/>
       </defs>
       <use xlink:href="#DejaVuSans-52"/>
      </g>
     </g>
    </g>
    <g id="xtick_6">
     <g id="line2d_6">
      <g>
       <use style="stroke:#000000;stroke-width:0.8;" x="332.184606" xlink:href="#mf16f4c1c00" y="162.432"/>
      </g>
     </g>
     <g id="text_6">
      <!-- 5 -->
      <g transform="translate(329.003356 177.030437)scale(0.1 -0.1)">
       <defs>
        <path d="M 10.796875 72.90625 
L 49.515625 72.90625 
L 49.515625 64.59375 
L 19.828125 64.59375 
L 19.828125 46.734375 
Q 21.96875 47.46875 24.109375 47.828125 
Q 26.265625 48.1875 28.421875 48.1875 
Q 40.625 48.1875 47.75 41.5 
Q 54.890625 34.8125 54.890625 23.390625 
Q 54.890625 11.625 47.5625 5.09375 
Q 40.234375 -1.421875 26.90625 -1.421875 
Q 22.3125 -1.421875 17.546875 -0.640625 
Q 12.796875 0.140625 7.71875 1.703125 
L 7.71875 11.625 
Q 12.109375 9.234375 16.796875 8.0625 
Q 21.484375 6.890625 26.703125 6.890625 
Q 35.15625 6.890625 40.078125 11.328125 
Q 45.015625 15.765625 45.015625 23.390625 
Q 45.015625 31 40.078125 35.4375 
Q 35.15625 39.890625 26.703125 39.890625 
Q 22.75 39.890625 18.8125 39.015625 
Q 14.890625 38.140625 10.796875 36.28125 
z
" id="DejaVuSans-53"/>
       </defs>
       <use xlink:href="#DejaVuSans-53"/>
      </g>
     </g>
    </g>
    <g id="xtick_7">
     <g id="line2d_7">
      <g>
       <use style="stroke:#000000;stroke-width:0.8;" x="383.854982" xlink:href="#mf16f4c1c00" y="162.432"/>
      </g>
     </g>
     <g id="text_7">
      <!-- 6 -->
      <g transform="translate(380.673732 177.030437)scale(0.1 -0.1)">
       <defs>
        <path d="M 33.015625 40.375 
Q 26.375 40.375 22.484375 35.828125 
Q 18.609375 31.296875 18.609375 23.390625 
Q 18.609375 15.53125 22.484375 10.953125 
Q 26.375 6.390625 33.015625 6.390625 
Q 39.65625 6.390625 43.53125 10.953125 
Q 47.40625 15.53125 47.40625 23.390625 
Q 47.40625 31.296875 43.53125 35.828125 
Q 39.65625 40.375 33.015625 40.375 
z
M 52.59375 71.296875 
L 52.59375 62.3125 
Q 48.875 64.0625 45.09375 64.984375 
Q 41.3125 65.921875 37.59375 65.921875 
Q 27.828125 65.921875 22.671875 59.328125 
Q 17.53125 52.734375 16.796875 39.40625 
Q 19.671875 43.65625 24.015625 45.921875 
Q 28.375 48.1875 33.59375 48.1875 
Q 44.578125 48.1875 50.953125 41.515625 
Q 57.328125 34.859375 57.328125 23.390625 
Q 57.328125 12.15625 50.6875 5.359375 
Q 44.046875 -1.421875 33.015625 -1.421875 
Q 20.359375 -1.421875 13.671875 8.265625 
Q 6.984375 17.96875 6.984375 36.375 
Q 6.984375 53.65625 15.1875 63.9375 
Q 23.390625 74.21875 37.203125 74.21875 
Q 40.921875 74.21875 44.703125 73.484375 
Q 48.484375 72.75 52.59375 71.296875 
z
" id="DejaVuSans-54"/>
       </defs>
       <use xlink:href="#DejaVuSans-54"/>
      </g>
     </g>
    </g>
    <g id="text_8">
     <!-- t -->
     <g transform="translate(234.199844 190.708562)scale(0.1 -0.1)">
      <defs>
       <path d="M 18.3125 70.21875 
L 18.3125 54.6875 
L 36.8125 54.6875 
L 36.8125 47.703125 
L 18.3125 47.703125 
L 18.3125 18.015625 
Q 18.3125 11.328125 20.140625 9.421875 
Q 21.96875 7.515625 27.59375 7.515625 
L 36.8125 7.515625 
L 36.8125 0 
L 27.59375 0 
Q 17.1875 0 13.234375 3.875 
Q 9.28125 7.765625 9.28125 18.015625 
L 9.28125 47.703125 
L 2.6875 47.703125 
L 2.6875 54.6875 
L 9.28125 54.6875 
L 9.28125 70.21875 
z
" id="DejaVuSans-116"/>
      </defs>
      <use xlink:href="#DejaVuSans-116"/>
     </g>
    </g>
   </g>
   <g id="matplotlib.axis_2">
    <g id="ytick_1">
     <g id="line2d_8">
      <defs>
       <path d="M 0 0 
L -3.5 0 
" id="m0338793503" style="stroke:#000000;stroke-width:0.8;"/>
      </defs>
      <g>
       <use style="stroke:#000000;stroke-width:0.8;" x="57.6" xlink:href="#m0338793503" y="158.222483"/>
      </g>
     </g>
     <g id="text_9">
      <!-- 1 -->
      <g transform="translate(44.2375 162.021702)scale(0.1 -0.1)">
       <use xlink:href="#DejaVuSans-49"/>
      </g>
     </g>
    </g>
    <g id="ytick_2">
     <g id="line2d_9">
      <g>
       <use style="stroke:#000000;stroke-width:0.8;" x="57.6" xlink:href="#m0338793503" y="134.952743"/>
      </g>
     </g>
     <g id="text_10">
      <!-- 2 -->
      <g transform="translate(44.2375 138.751961)scale(0.1 -0.1)">
       <use xlink:href="#DejaVuSans-50"/>
      </g>
     </g>
    </g>
    <g id="ytick_3">
     <g id="line2d_10">
      <g>
       <use style="stroke:#000000;stroke-width:0.8;" x="57.6" xlink:href="#m0338793503" y="111.683002"/>
      </g>
     </g>
     <g id="text_11">
      <!-- 3 -->
      <g transform="translate(44.2375 115.482221)scale(0.1 -0.1)">
       <use xlink:href="#DejaVuSans-51"/>
      </g>
     </g>
    </g>
    <g id="ytick_4">
     <g id="line2d_11">
      <g>
       <use style="stroke:#000000;stroke-width:0.8;" x="57.6" xlink:href="#m0338793503" y="88.413262"/>
      </g>
     </g>
     <g id="text_12">
      <!-- 4 -->
      <g transform="translate(44.2375 92.212481)scale(0.1 -0.1)">
       <use xlink:href="#DejaVuSans-52"/>
      </g>
     </g>
    </g>
    <g id="ytick_5">
     <g id="line2d_12">
      <g>
       <use style="stroke:#000000;stroke-width:0.8;" x="57.6" xlink:href="#m0338793503" y="65.143522"/>
      </g>
     </g>
     <g id="text_13">
      <!-- 5 -->
      <g transform="translate(44.2375 68.942741)scale(0.1 -0.1)">
       <use xlink:href="#DejaVuSans-53"/>
      </g>
     </g>
    </g>
    <g id="ytick_6">
     <g id="line2d_13">
      <g>
       <use style="stroke:#000000;stroke-width:0.8;" x="57.6" xlink:href="#m0338793503" y="41.873782"/>
      </g>
     </g>
     <g id="text_14">
      <!-- 6 -->
      <g transform="translate(44.2375 45.673)scale(0.1 -0.1)">
       <use xlink:href="#DejaVuSans-54"/>
      </g>
     </g>
    </g>
    <g id="text_15">
     <!-- $C_y(t)$ -->
     <g transform="translate(37.1375 113.552)rotate(-90)scale(0.1 -0.1)">
      <defs>
       <path d="M 69.484375 67.28125 
L 67.484375 56.890625 
Q 62.796875 61.625 57.546875 63.921875 
Q 52.296875 66.21875 46.1875 66.21875 
Q 37.84375 66.21875 31.515625 62.203125 
Q 25.203125 58.203125 20.609375 50 
Q 17.671875 44.734375 16.125 38.84375 
Q 14.59375 32.953125 14.59375 27 
Q 14.59375 17.046875 19.75 11.8125 
Q 24.90625 6.59375 34.71875 6.59375 
Q 41.5 6.59375 47.75 8.765625 
Q 54 10.9375 59.90625 15.28125 
L 57.625 3.609375 
Q 51.8125 1.125 45.875 -0.140625 
Q 39.9375 -1.421875 33.984375 -1.421875 
Q 19.96875 -1.421875 12.078125 6.1875 
Q 4.203125 13.8125 4.203125 27.390625 
Q 4.203125 36.078125 7.203125 44.46875 
Q 10.203125 52.875 15.828125 59.8125 
Q 21.78125 67.1875 29.421875 70.703125 
Q 37.0625 74.21875 47.21875 74.21875 
Q 53.46875 74.21875 59.0625 72.484375 
Q 64.65625 70.75 69.484375 67.28125 
z
" id="DejaVuSans-Oblique-67"/>
       <path d="M 24.8125 -5.078125 
Q 18.5625 -15.578125 14.625 -18.1875 
Q 10.6875 -20.796875 4.59375 -20.796875 
L -2.484375 -20.796875 
L -0.984375 -13.28125 
L 4.203125 -13.28125 
Q 7.953125 -13.28125 10.59375 -11.234375 
Q 13.234375 -9.1875 16.5 -3.21875 
L 19.28125 2 
L 7.171875 54.6875 
L 16.703125 54.6875 
L 25.78125 12.796875 
L 50.875 54.6875 
L 60.296875 54.6875 
z
" id="DejaVuSans-Oblique-121"/>
       <path d="M 31 75.875 
Q 24.46875 64.65625 21.28125 53.65625 
Q 18.109375 42.671875 18.109375 31.390625 
Q 18.109375 20.125 21.3125 9.0625 
Q 24.515625 -2 31 -13.1875 
L 23.1875 -13.1875 
Q 15.875 -1.703125 12.234375 9.375 
Q 8.59375 20.453125 8.59375 31.390625 
Q 8.59375 42.28125 12.203125 53.3125 
Q 15.828125 64.359375 23.1875 75.875 
z
" id="DejaVuSans-40"/>
       <path d="M 42.28125 54.6875 
L 40.921875 47.703125 
L 23 47.703125 
L 17.1875 18.015625 
Q 16.890625 16.359375 16.75 15.234375 
Q 16.609375 14.109375 16.609375 13.484375 
Q 16.609375 10.359375 18.484375 8.9375 
Q 20.359375 7.515625 24.515625 7.515625 
L 33.59375 7.515625 
L 32.078125 0 
L 23.484375 0 
Q 15.484375 0 11.546875 3.125 
Q 7.625 6.25 7.625 12.59375 
Q 7.625 13.71875 7.765625 15.0625 
Q 7.90625 16.40625 8.203125 18.015625 
L 14.015625 47.703125 
L 6.390625 47.703125 
L 7.8125 54.6875 
L 15.28125 54.6875 
L 18.3125 70.21875 
L 27.296875 70.21875 
L 24.3125 54.6875 
z
" id="DejaVuSans-Oblique-116"/>
       <path d="M 8.015625 75.875 
L 15.828125 75.875 
Q 23.140625 64.359375 26.78125 53.3125 
Q 30.421875 42.28125 30.421875 31.390625 
Q 30.421875 20.453125 26.78125 9.375 
Q 23.140625 -1.703125 15.828125 -13.1875 
L 8.015625 -13.1875 
Q 14.5 -2 17.703125 9.0625 
Q 20.90625 20.125 20.90625 31.390625 
Q 20.90625 42.671875 17.703125 53.65625 
Q 14.5 64.65625 8.015625 75.875 
z
" id="DejaVuSans-41"/>
      </defs>
      <use transform="translate(0 0.125)" xlink:href="#DejaVuSans-Oblique-67"/>
      <use transform="translate(69.824219 -16.28125)scale(0.7)" xlink:href="#DejaVuSans-Oblique-121"/>
      <use transform="translate(113.984375 0.125)" xlink:href="#DejaVuSans-40"/>
      <use transform="translate(152.998047 0.125)" xlink:href="#DejaVuSans-Oblique-116"/>
      <use transform="translate(192.207031 0.125)" xlink:href="#DejaVuSans-41"/>
     </g>
    </g>
   </g>
   <g id="line2d_14">
    <path clip-path="url(#p402d75d229)" d="M 73.832727 46.970182 
L 74.483338 52.697481 
L 75.133948 55.005951 
L 75.784558 55.691249 
L 76.435169 55.946986 
L 77.736389 57.127688 
L 78.386999 59.809827 
L 79.03761 61.574041 
L 79.68822 61.587824 
L 80.33883 61.9315 
L 80.989441 62.485966 
L 81.640051 63.823316 
L 82.290661 63.904268 
L 83.591882 65.556 
L 84.242492 65.676978 
L 84.893103 66.497044 
L 85.543713 68.886813 
L 86.844934 69.338488 
L 87.495544 69.836517 
L 88.146154 70.001712 
L 88.796764 70.692029 
L 89.447375 70.692419 
L 91.399206 71.185561 
L 92.049816 71.46127 
L 92.700426 71.874476 
L 93.351037 72.445195 
L 95.302868 72.890088 
L 97.254698 73.088977 
L 97.905309 73.8956 
L 98.555919 74.234939 
L 99.206529 75.094195 
L 99.85714 75.687192 
L 101.15836 76.266664 
L 101.808971 77.014114 
L 102.459581 77.375195 
L 103.110191 78.889995 
L 103.760802 79.241281 
L 105.712633 79.46389 
L 107.013853 80.237375 
L 108.965684 80.708233 
L 110.266905 81.852635 
L 110.917515 82.266491 
L 111.568125 82.94688 
L 112.218736 83.098481 
L 114.170567 84.330362 
L 114.821177 84.42437 
L 116.122398 85.381859 
L 116.773008 85.538268 
L 118.074228 85.563951 
L 118.724839 85.706996 
L 119.375449 86.871207 
L 120.026059 87.059448 
L 120.67667 87.849641 
L 121.32728 88.431495 
L 121.97789 88.439115 
L 122.628501 88.832828 
L 123.279111 88.869868 
L 123.929721 89.294708 
L 125.230942 89.503734 
L 125.881552 89.864146 
L 126.532163 89.912414 
L 127.182773 90.102384 
L 127.833383 92.173007 
L 128.483993 92.529518 
L 131.086435 93.464279 
L 131.737045 93.487869 
L 132.387655 93.728244 
L 133.038266 94.922806 
L 133.688876 95.638651 
L 134.990097 96.379253 
L 136.291317 96.470528 
L 136.941927 96.711283 
L 138.243148 96.89624 
L 138.893758 97.545404 
L 139.544369 98.013747 
L 140.194979 98.195576 
L 140.845589 98.20793 
L 141.4962 99.662905 
L 143.448031 99.981586 
L 144.098641 101.030291 
L 145.399862 101.456313 
L 146.050472 101.925044 
L 148.002303 102.467678 
L 148.652913 103.059775 
L 149.303523 103.272518 
L 149.954134 104.782057 
L 150.604744 104.855965 
L 151.255354 105.106952 
L 151.905965 106.357031 
L 152.556575 108.117891 
L 153.207185 108.495371 
L 154.508406 109.896461 
L 155.159016 111.196953 
L 155.809627 112.899683 
L 157.110847 113.275547 
L 157.761457 113.669966 
L 158.412068 113.676979 
L 161.014509 114.636379 
L 161.665119 114.983233 
L 162.31573 115.131364 
L 164.267561 114.982519 
L 164.918171 115.266759 
L 165.568781 115.223859 
L 166.219392 115.066467 
L 166.870002 114.562203 
L 167.520612 114.58807 
L 168.171222 114.298243 
L 168.821833 114.159467 
L 169.472443 113.416102 
L 170.123053 113.403373 
L 170.773664 113.10392 
L 173.376105 113.070117 
L 174.026715 112.952487 
L 174.677326 111.988507 
L 175.327936 111.397789 
L 175.978546 110.517501 
L 176.629156 110.342647 
L 177.279767 109.632788 
L 177.930377 109.609905 
L 179.231598 109.33929 
L 180.532818 109.272529 
L 182.484649 108.42129 
L 183.13526 108.129762 
L 183.78587 107.638761 
L 184.43648 107.611222 
L 185.087091 107.215223 
L 185.737701 105.800915 
L 186.388311 102.421609 
L 188.340142 100.910608 
L 188.990752 99.840301 
L 189.641363 99.748488 
L 190.291973 98.964905 
L 190.942583 98.658052 
L 191.593194 96.946629 
L 192.243804 96.44525 
L 192.894414 94.87652 
L 193.545025 93.622747 
L 194.195635 91.955753 
L 195.496856 91.010923 
L 196.147466 89.970995 
L 197.448686 83.215699 
L 198.099297 82.825399 
L 198.749907 82.701762 
L 199.400517 80.747007 
L 200.701738 80.36144 
L 202.002959 79.788067 
L 202.653569 79.717985 
L 203.304179 78.735448 
L 203.95479 78.446598 
L 204.6054 77.572718 
L 205.25601 77.552511 
L 205.906621 76.404744 
L 206.557231 75.683994 
L 207.207841 75.708582 
L 207.858451 75.4823 
L 208.509062 75.514531 
L 209.159672 75.427475 
L 209.810282 74.994681 
L 210.460893 75.098381 
L 211.111503 74.536893 
L 213.063334 75.008648 
L 213.713944 75.643246 
L 214.364555 76.658332 
L 215.015165 76.688096 
L 215.665775 78.127384 
L 216.316385 78.402575 
L 216.966996 78.530689 
L 217.617606 79.263845 
L 218.268216 82.367832 
L 220.870658 82.403587 
L 221.521268 85.185771 
L 222.171878 85.215357 
L 222.822489 85.599465 
L 223.473099 87.827262 
L 224.123709 88.18015 
L 224.77432 92.456043 
L 225.42493 94.19531 
L 226.07554 94.492637 
L 226.72615 94.508793 
L 227.376761 94.638302 
L 228.027371 95.817295 
L 228.677981 96.514037 
L 229.328592 96.618831 
L 229.979202 97.02838 
L 230.629812 97.072211 
L 231.280423 98.642684 
L 231.931033 98.84094 
L 232.581643 99.206964 
L 233.232254 99.726299 
L 234.533474 103.583947 
L 235.184085 107.249454 
L 235.834695 107.450098 
L 236.485305 109.22934 
L 237.135915 109.310634 
L 238.437136 110.528069 
L 239.087746 112.086218 
L 239.738357 112.753833 
L 240.388967 113.107704 
L 241.039577 113.804963 
L 241.690188 117.533781 
L 242.340798 117.557502 
L 242.991408 117.81633 
L 244.292629 119.724345 
L 244.943239 119.874285 
L 245.59385 121.61462 
L 246.24446 121.743007 
L 246.89507 122.264335 
L 247.54568 123.52596 
L 248.196291 125.063207 
L 248.846901 125.368441 
L 249.497511 128.3191 
L 250.148122 129.261877 
L 250.798732 132.116115 
L 252.099953 132.599899 
L 252.750563 133.107121 
L 253.401173 133.418547 
L 254.051784 133.964414 
L 254.702394 134.355082 
L 255.353004 135.59684 
L 256.003615 135.712538 
L 256.654225 136.417911 
L 257.304835 136.544045 
L 257.955445 136.825266 
L 258.606056 136.829846 
L 259.907276 138.522782 
L 261.208497 138.676725 
L 261.859107 140.704862 
L 263.160328 141.716281 
L 264.461549 141.905359 
L 265.112159 142.724516 
L 265.762769 142.850571 
L 267.06399 143.483038 
L 268.36521 144.214288 
L 269.015821 144.304743 
L 270.967652 145.804887 
L 275.521924 146.55697 
L 276.172534 146.811756 
L 277.473755 146.899098 
L 278.124365 147.56942 
L 278.774975 147.805768 
L 279.425586 147.830939 
L 280.726806 148.226353 
L 281.377417 148.602674 
L 284.630468 148.698526 
L 285.281079 149.283689 
L 286.582299 149.445436 
L 287.232909 150.035014 
L 287.88352 150.016477 
L 288.53413 150.361307 
L 289.18474 150.167434 
L 290.485961 150.130182 
L 293.739013 151.027122 
L 294.389623 151.039306 
L 296.341454 151.45298 
L 296.992064 152.141672 
L 297.642674 152.353347 
L 298.293285 153.642547 
L 298.943895 153.973102 
L 299.594505 154.169863 
L 300.245116 154.588235 
L 302.847557 154.282216 
L 303.498167 153.334323 
L 304.148778 152.147337 
L 304.799388 151.417741 
L 305.449998 151.039247 
L 306.100608 150.87094 
L 306.751219 150.511309 
L 308.052439 148.490957 
L 308.70305 148.117756 
L 309.35366 147.882047 
L 310.00427 147.362093 
L 310.654881 146.441878 
L 311.305491 145.749918 
L 311.956101 145.643484 
L 312.606712 144.911781 
L 313.257322 144.663866 
L 313.907932 143.049316 
L 315.859763 141.811724 
L 316.510373 141.752397 
L 317.160984 141.331814 
L 317.811594 141.325681 
L 318.462204 141.19745 
L 319.763425 141.312447 
L 321.715256 141.173704 
L 323.667087 141.231465 
L 324.317697 141.185158 
L 326.269528 141.406823 
L 326.920138 142.226463 
L 327.570749 142.40222 
L 328.871969 142.503698 
L 329.52258 143.463257 
L 330.17319 143.775839 
L 330.8238 143.794334 
L 331.474411 144.24893 
L 332.125021 145.362342 
L 333.426242 145.631717 
L 334.076852 145.752071 
L 334.727462 150.205757 
L 336.028683 150.715779 
L 336.679293 150.996777 
L 337.329903 152.14243 
L 337.980514 152.326253 
L 338.631124 152.670632 
L 339.281734 153.244984 
L 339.932345 153.429929 
L 340.582955 153.476387 
L 341.233565 153.905731 
L 341.884176 153.910259 
L 342.534786 154.678643 
L 343.836007 155.394112 
L 344.486617 155.409232 
L 345.137227 155.563118 
L 345.787837 155.574815 
L 347.089058 156.490082 
L 348.390279 156.563651 
L 349.040889 156.755153 
L 350.34211 156.838624 
L 351.64333 156.927381 
L 356.848213 156.609834 
L 357.498823 156.522724 
L 358.149433 156.17757 
L 358.800044 156.123454 
L 359.450654 155.761085 
L 360.751875 155.653588 
L 361.402485 155.473304 
L 363.354316 155.34065 
L 364.004926 155.066785 
L 365.956757 154.961634 
L 366.607367 154.440625 
L 367.257978 154.232262 
L 367.908588 154.149712 
L 368.559198 153.902736 
L 369.209809 152.792386 
L 369.860419 152.769523 
L 370.511029 152.283651 
L 371.16164 151.300667 
L 371.81225 151.133124 
L 372.46286 150.68069 
L 375.065302 150.465501 
L 377.667743 149.779297 
L 378.318353 149.312989 
L 378.968963 148.509032 
L 379.619574 148.490682 
L 380.920794 147.988333 
L 382.222015 147.704197 
L 382.872625 147.358065 
L 383.523236 147.142068 
L 384.173846 146.428586 
L 384.824456 145.373764 
L 385.475066 144.697938 
L 386.125677 144.511014 
L 386.776287 143.580943 
L 387.426897 142.958581 
L 388.077508 142.546111 
L 388.728118 141.052522 
L 389.378728 140.813504 
L 390.029339 139.964929 
L 391.330559 139.361274 
L 391.98117 139.293572 
L 392.63178 138.076619 
L 393.28239 137.505673 
L 393.933001 133.164889 
L 394.583611 132.759462 
L 395.234221 132.087427 
L 395.884831 131.937742 
L 396.535442 131.554262 
L 397.186052 130.348416 
L 398.487273 124.916867 
L 398.487273 124.916867 
" style="fill:none;stroke:#1f77b4;stroke-linecap:square;stroke-width:1.5;"/>
   </g>
   <g id="patch_3">
    <path d="M 57.6 162.432 
L 57.6 41.472 
" style="fill:none;stroke:#000000;stroke-linecap:square;stroke-linejoin:miter;stroke-width:0.8;"/>
   </g>
   <g id="patch_4">
    <path d="M 414.72 162.432 
L 414.72 41.472 
" style="fill:none;stroke:#000000;stroke-linecap:square;stroke-linejoin:miter;stroke-width:0.8;"/>
   </g>
   <g id="patch_5">
    <path d="M 57.6 162.432 
L 414.72 162.432 
" style="fill:none;stroke:#000000;stroke-linecap:square;stroke-linejoin:miter;stroke-width:0.8;"/>
   </g>
   <g id="patch_6">
    <path d="M 57.6 41.472 
L 414.72 41.472 
" style="fill:none;stroke:#000000;stroke-linecap:square;stroke-linejoin:miter;stroke-width:0.8;"/>
   </g>
  </g>
  <g id="axes_2">
   <g id="patch_7">
    <path d="M 57.6 307.584 
L 414.72 307.584 
L 414.72 186.624 
L 57.6 186.624 
z
" style="fill:none;"/>
   </g>
   <g id="matplotlib.axis_3">
    <g id="xtick_8">
     <g id="line2d_15">
      <g>
       <use style="stroke:#000000;stroke-width:0.8;" x="73.832727" xlink:href="#mf16f4c1c00" y="307.584"/>
      </g>
     </g>
     <g id="text_16">
      <!-- 0 -->
      <g transform="translate(70.651477 322.182437)scale(0.1 -0.1)">
       <use xlink:href="#DejaVuSans-48"/>
      </g>
     </g>
    </g>
    <g id="xtick_9">
     <g id="line2d_16">
      <g>
       <use style="stroke:#000000;stroke-width:0.8;" x="125.503103" xlink:href="#mf16f4c1c00" y="307.584"/>
      </g>
     </g>
     <g id="text_17">
      <!-- 1 -->
      <g transform="translate(122.321853 322.182437)scale(0.1 -0.1)">
       <use xlink:href="#DejaVuSans-49"/>
      </g>
     </g>
    </g>
    <g id="xtick_10">
     <g id="line2d_17">
      <g>
       <use style="stroke:#000000;stroke-width:0.8;" x="177.173479" xlink:href="#mf16f4c1c00" y="307.584"/>
      </g>
     </g>
     <g id="text_18">
      <!-- 2 -->
      <g transform="translate(173.992229 322.182437)scale(0.1 -0.1)">
       <use xlink:href="#DejaVuSans-50"/>
      </g>
     </g>
    </g>
    <g id="xtick_11">
     <g id="line2d_18">
      <g>
       <use style="stroke:#000000;stroke-width:0.8;" x="228.843854" xlink:href="#mf16f4c1c00" y="307.584"/>
      </g>
     </g>
     <g id="text_19">
      <!-- 3 -->
      <g transform="translate(225.662604 322.182437)scale(0.1 -0.1)">
       <use xlink:href="#DejaVuSans-51"/>
      </g>
     </g>
    </g>
    <g id="xtick_12">
     <g id="line2d_19">
      <g>
       <use style="stroke:#000000;stroke-width:0.8;" x="280.51423" xlink:href="#mf16f4c1c00" y="307.584"/>
      </g>
     </g>
     <g id="text_20">
      <!-- 4 -->
      <g transform="translate(277.33298 322.182437)scale(0.1 -0.1)">
       <use xlink:href="#DejaVuSans-52"/>
      </g>
     </g>
    </g>
    <g id="xtick_13">
     <g id="line2d_20">
      <g>
       <use style="stroke:#000000;stroke-width:0.8;" x="332.184606" xlink:href="#mf16f4c1c00" y="307.584"/>
      </g>
     </g>
     <g id="text_21">
      <!-- 5 -->
      <g transform="translate(329.003356 322.182437)scale(0.1 -0.1)">
       <use xlink:href="#DejaVuSans-53"/>
      </g>
     </g>
    </g>
    <g id="xtick_14">
     <g id="line2d_21">
      <g>
       <use style="stroke:#000000;stroke-width:0.8;" x="383.854982" xlink:href="#mf16f4c1c00" y="307.584"/>
      </g>
     </g>
     <g id="text_22">
      <!-- 6 -->
      <g transform="translate(380.673732 322.182437)scale(0.1 -0.1)">
       <use xlink:href="#DejaVuSans-54"/>
      </g>
     </g>
    </g>
    <g id="text_23">
     <!-- t -->
     <g transform="translate(234.199844 335.860562)scale(0.1 -0.1)">
      <use xlink:href="#DejaVuSans-116"/>
     </g>
    </g>
   </g>
   <g id="matplotlib.axis_4">
    <g id="ytick_7">
     <g id="line2d_22">
      <g>
       <use style="stroke:#000000;stroke-width:0.8;" x="57.6" xlink:href="#m0338793503" y="302.157683"/>
      </g>
     </g>
     <g id="text_24">
      <!-- −1.0 -->
      <g transform="translate(26.317187 305.956902)scale(0.1 -0.1)">
       <defs>
        <path d="M 10.59375 35.5 
L 73.1875 35.5 
L 73.1875 27.203125 
L 10.59375 27.203125 
z
" id="DejaVuSans-8722"/>
        <path d="M 10.6875 12.40625 
L 21 12.40625 
L 21 0 
L 10.6875 0 
z
" id="DejaVuSans-46"/>
       </defs>
       <use xlink:href="#DejaVuSans-8722"/>
       <use x="83.789062" xlink:href="#DejaVuSans-49"/>
       <use x="147.412109" xlink:href="#DejaVuSans-46"/>
       <use x="179.199219" xlink:href="#DejaVuSans-48"/>
      </g>
     </g>
    </g>
    <g id="ytick_8">
     <g id="line2d_23">
      <g>
       <use style="stroke:#000000;stroke-width:0.8;" x="57.6" xlink:href="#m0338793503" y="276.990953"/>
      </g>
     </g>
     <g id="text_25">
      <!-- −0.5 -->
      <g transform="translate(26.317187 280.790172)scale(0.1 -0.1)">
       <use xlink:href="#DejaVuSans-8722"/>
       <use x="83.789062" xlink:href="#DejaVuSans-48"/>
       <use x="147.412109" xlink:href="#DejaVuSans-46"/>
       <use x="179.199219" xlink:href="#DejaVuSans-53"/>
      </g>
     </g>
    </g>
    <g id="ytick_9">
     <g id="line2d_24">
      <g>
       <use style="stroke:#000000;stroke-width:0.8;" x="57.6" xlink:href="#m0338793503" y="251.824222"/>
      </g>
     </g>
     <g id="text_26">
      <!-- 0.0 -->
      <g transform="translate(34.696875 255.623441)scale(0.1 -0.1)">
       <use xlink:href="#DejaVuSans-48"/>
       <use x="63.623047" xlink:href="#DejaVuSans-46"/>
       <use x="95.410156" xlink:href="#DejaVuSans-48"/>
      </g>
     </g>
    </g>
    <g id="ytick_10">
     <g id="line2d_25">
      <g>
       <use style="stroke:#000000;stroke-width:0.8;" x="57.6" xlink:href="#m0338793503" y="226.657492"/>
      </g>
     </g>
     <g id="text_27">
      <!-- 0.5 -->
      <g transform="translate(34.696875 230.456711)scale(0.1 -0.1)">
       <use xlink:href="#DejaVuSans-48"/>
       <use x="63.623047" xlink:href="#DejaVuSans-46"/>
       <use x="95.410156" xlink:href="#DejaVuSans-53"/>
      </g>
     </g>
    </g>
    <g id="ytick_11">
     <g id="line2d_26">
      <g>
       <use style="stroke:#000000;stroke-width:0.8;" x="57.6" xlink:href="#m0338793503" y="201.490761"/>
      </g>
     </g>
     <g id="text_28">
      <!-- 1.0 -->
      <g transform="translate(34.696875 205.28998)scale(0.1 -0.1)">
       <use xlink:href="#DejaVuSans-49"/>
       <use x="63.623047" xlink:href="#DejaVuSans-46"/>
       <use x="95.410156" xlink:href="#DejaVuSans-48"/>
      </g>
     </g>
    </g>
    <g id="text_29">
     <!-- $C_x(t)$ -->
     <g transform="translate(20.2375 258.704)rotate(-90)scale(0.1 -0.1)">
      <defs>
       <path d="M 60.015625 54.6875 
L 34.90625 27.875 
L 50.296875 0 
L 39.984375 0 
L 28.421875 21.6875 
L 8.296875 0 
L -2.59375 0 
L 24.3125 28.8125 
L 10.015625 54.6875 
L 20.3125 54.6875 
L 30.8125 34.90625 
L 49.125 54.6875 
z
" id="DejaVuSans-Oblique-120"/>
      </defs>
      <use transform="translate(0 0.125)" xlink:href="#DejaVuSans-Oblique-67"/>
      <use transform="translate(69.824219 -16.28125)scale(0.7)" xlink:href="#DejaVuSans-Oblique-120"/>
      <use transform="translate(113.984375 0.125)" xlink:href="#DejaVuSans-40"/>
      <use transform="translate(152.998047 0.125)" xlink:href="#DejaVuSans-Oblique-116"/>
      <use transform="translate(192.207031 0.125)" xlink:href="#DejaVuSans-41"/>
     </g>
    </g>
   </g>
   <g id="line2d_27">
    <path clip-path="url(#pa484817943)" d="M 73.832727 302.085818 
L 74.483338 300.814751 
L 75.133948 300.289547 
L 77.085779 299.928102 
L 77.736389 299.798686 
L 78.386999 299.163277 
L 79.03761 298.733354 
L 80.33883 298.644826 
L 80.989441 298.506453 
L 81.640051 298.166935 
L 82.290661 298.146102 
L 83.591882 297.713334 
L 84.242492 297.681033 
L 84.893103 297.459812 
L 85.543713 296.792532 
L 88.146154 296.469797 
L 88.796764 296.266506 
L 90.748595 296.215035 
L 95.302868 295.603685 
L 97.254698 295.542721 
L 97.905309 295.29416 
L 98.555919 295.189069 
L 99.85714 294.737169 
L 101.808971 294.323914 
L 102.459581 294.211959 
L 103.110191 293.747523 
L 104.411412 293.613898 
L 106.363243 293.449007 
L 107.664463 293.302653 
L 108.965684 293.207747 
L 111.568125 292.578623 
L 113.519956 292.365678 
L 114.170567 292.207143 
L 115.471787 292.061028 
L 116.773008 291.889349 
L 118.724839 291.845183 
L 119.375449 291.546507 
L 120.026059 291.497507 
L 121.32728 291.137881 
L 122.628501 291.0296 
L 123.929721 290.901675 
L 127.182773 290.679221 
L 127.833383 290.017038 
L 129.134604 289.794331 
L 130.435824 289.646127 
L 131.086435 289.467555 
L 132.387655 289.339752 
L 133.688876 287.922344 
L 134.339486 287.459263 
L 134.990097 286.8543 
L 136.291317 286.800591 
L 137.592538 286.591848 
L 138.243148 286.533461 
L 138.893758 286.137371 
L 140.194979 285.840085 
L 140.845589 285.82253 
L 141.4962 285.197771 
L 143.448031 285.068387 
L 144.098641 284.631551 
L 145.399862 284.442699 
L 146.050472 284.196061 
L 149.303523 283.611834 
L 149.954134 283.083094 
L 151.255354 282.980463 
L 151.905965 282.646312 
L 152.556575 282.051727 
L 153.207185 281.912396 
L 154.508406 281.39949 
L 155.159016 280.922664 
L 155.809627 280.255276 
L 157.110847 280.075537 
L 157.761457 279.789123 
L 159.062678 279.687535 
L 161.014509 279.179449 
L 162.31573 278.299353 
L 163.61695 277.977901 
L 165.568781 277.130112 
L 166.219392 276.981468 
L 166.870002 276.612436 
L 167.520612 276.572767 
L 168.821833 276.356234 
L 169.472443 275.985922 
L 170.123053 275.980961 
L 171.424274 275.699403 
L 174.026715 275.438964 
L 175.327936 274.656021 
L 175.978546 274.212602 
L 176.629156 274.081778 
L 177.279767 273.440376 
L 177.930377 273.416627 
L 179.231598 273.160972 
L 180.532818 273.097725 
L 183.13526 272.202424 
L 183.78587 271.829842 
L 184.43648 271.811111 
L 185.087091 271.554584 
L 185.737701 270.702749 
L 186.388311 269.470104 
L 188.340142 269.104189 
L 188.990752 268.762272 
L 189.641363 268.718191 
L 190.942583 268.456799 
L 191.593194 267.946946 
L 192.243804 267.814395 
L 194.195635 266.584951 
L 195.496856 266.33076 
L 196.147466 266.060793 
L 196.798076 265.299981 
L 197.448686 264.31792 
L 198.749907 264.156278 
L 199.400517 263.603457 
L 202.653569 263.294815 
L 203.304179 262.868805 
L 203.95479 262.779468 
L 204.6054 262.242276 
L 205.25601 262.215545 
L 206.557231 261.248736 
L 209.159672 260.898703 
L 209.810282 260.581068 
L 210.460893 260.488595 
L 211.111503 260.025061 
L 211.762113 259.819551 
L 212.412724 259.372712 
L 213.063334 259.305002 
L 214.364555 258.628354 
L 215.015165 258.593359 
L 215.665775 257.954713 
L 217.617606 257.648182 
L 218.268216 256.537527 
L 220.870658 256.392944 
L 221.521268 255.071278 
L 222.171878 255.064432 
L 222.822489 254.917109 
L 223.473099 254.336447 
L 224.123709 254.250059 
L 224.77432 252.794639 
L 225.42493 252.312519 
L 226.07554 252.170795 
L 227.376761 252.130084 
L 228.027371 251.623949 
L 228.677981 251.367733 
L 229.328592 251.319508 
L 229.979202 251.13583 
L 230.629812 251.116607 
L 231.280423 250.596431 
L 232.581643 250.441931 
L 233.232254 250.272313 
L 234.533474 249.143467 
L 235.184085 247.906092 
L 235.834695 247.84002 
L 236.485305 247.26159 
L 237.135915 247.233139 
L 238.437136 246.858462 
L 239.087746 246.397069 
L 239.738357 246.12341 
L 241.039577 245.835402 
L 241.690188 244.751191 
L 242.340798 244.735193 
L 242.991408 244.550355 
L 243.642019 244.032468 
L 244.292629 243.74061 
L 244.943239 243.711227 
L 245.59385 243.11412 
L 246.89507 242.974492 
L 247.54568 242.645979 
L 248.196291 242.156058 
L 248.846901 241.979723 
L 249.497511 240.863036 
L 250.148122 240.461963 
L 250.798732 239.40869 
L 252.099953 239.242735 
L 254.051784 238.459986 
L 254.702394 238.279124 
L 255.353004 237.737306 
L 256.003615 237.685124 
L 256.654225 237.334207 
L 258.606056 237.126975 
L 259.907276 236.27979 
L 261.208497 236.195063 
L 261.859107 235.037646 
L 262.509718 234.742587 
L 263.160328 234.076337 
L 263.810938 233.771246 
L 264.461549 233.724403 
L 265.112159 233.027957 
L 267.06399 232.322159 
L 267.7146 231.865957 
L 268.36521 231.585652 
L 269.015821 231.528658 
L 269.666431 230.895085 
L 270.317041 230.089804 
L 270.967652 229.480886 
L 272.919483 229.127616 
L 273.570093 228.718918 
L 274.871314 228.606155 
L 275.521924 228.382805 
L 276.172534 227.947743 
L 277.473755 227.801337 
L 278.124365 226.823879 
L 278.774975 226.55285 
L 279.425586 226.470285 
L 280.076196 226.186806 
L 280.726806 225.308538 
L 281.377417 224.641661 
L 283.329248 224.555686 
L 284.630468 224.306558 
L 285.281079 223.744211 
L 285.931689 223.545277 
L 286.582299 223.498439 
L 287.232909 223.0538 
L 287.88352 222.902218 
L 288.53413 222.34828 
L 289.18474 222.057818 
L 290.485961 221.995381 
L 291.136571 221.660461 
L 291.787182 221.595083 
L 293.739013 220.908518 
L 295.040233 220.78663 
L 296.992064 219.983126 
L 297.642674 219.611111 
L 298.293285 218.866959 
L 299.594505 218.535401 
L 300.245116 217.463527 
L 302.196947 217.025025 
L 302.847557 216.96059 
L 303.498167 216.193809 
L 304.148778 215.658142 
L 304.799388 215.395829 
L 307.401829 214.768249 
L 308.70305 214.303742 
L 310.00427 214.055271 
L 311.305491 213.498219 
L 311.956101 213.454171 
L 312.606712 213.16445 
L 313.257322 213.080006 
L 313.907932 212.31217 
L 314.558543 212.05173 
L 315.209153 211.550976 
L 315.859763 211.399063 
L 316.510373 211.365258 
L 317.160984 210.742702 
L 318.462204 210.637756 
L 319.112815 210.116122 
L 320.414035 209.81444 
L 323.667087 209.323659 
L 324.968308 208.82629 
L 325.618918 208.765842 
L 326.920138 207.358798 
L 328.871969 207.256615 
L 329.52258 206.911331 
L 331.474411 206.632226 
L 332.125021 206.289412 
L 334.076852 206.179289 
L 334.727462 204.94806 
L 336.679293 204.712135 
L 337.329903 204.326472 
L 338.631124 204.128604 
L 339.281734 203.907718 
L 341.884176 203.568116 
L 342.534786 203.227204 
L 343.836007 202.922527 
L 345.787837 202.855663 
L 347.089058 202.369091 
L 347.739668 202.335754 
L 349.040889 201.889836 
L 350.34211 201.828824 
L 350.99272 201.553997 
L 352.944551 201.433934 
L 355.546992 201.103568 
L 357.498823 200.964766 
L 358.149433 200.684185 
L 358.800044 200.646365 
L 359.450654 200.418451 
L 363.354316 200.190406 
L 364.004926 200.055338 
L 365.956757 200.005617 
L 366.607367 199.772916 
L 368.559198 199.550723 
L 369.209809 199.129382 
L 369.860419 199.121098 
L 370.511029 198.947972 
L 371.16164 198.612333 
L 378.318353 197.97752 
L 378.968963 197.733072 
L 380.270184 197.641221 
L 383.523236 197.330385 
L 387.426897 196.181419 
L 388.077508 196.073908 
L 388.728118 195.691916 
L 389.378728 195.631804 
L 390.029339 195.420557 
L 391.98117 195.255737 
L 392.63178 194.961957 
L 393.28239 194.826288 
L 393.933001 193.835799 
L 396.535442 193.484694 
L 397.186052 193.227201 
L 398.487273 192.122182 
L 398.487273 192.122182 
" style="fill:none;stroke:#1f77b4;stroke-linecap:square;stroke-width:1.5;"/>
   </g>
   <g id="patch_8">
    <path d="M 57.6 307.584 
L 57.6 186.624 
" style="fill:none;stroke:#000000;stroke-linecap:square;stroke-linejoin:miter;stroke-width:0.8;"/>
   </g>
   <g id="patch_9">
    <path d="M 414.72 307.584 
L 414.72 186.624 
" style="fill:none;stroke:#000000;stroke-linecap:square;stroke-linejoin:miter;stroke-width:0.8;"/>
   </g>
   <g id="patch_10">
    <path d="M 57.6 307.584 
L 414.72 307.584 
" style="fill:none;stroke:#000000;stroke-linecap:square;stroke-linejoin:miter;stroke-width:0.8;"/>
   </g>
   <g id="patch_11">
    <path d="M 57.6 186.624 
L 414.72 186.624 
" style="fill:none;stroke:#000000;stroke-linecap:square;stroke-linejoin:miter;stroke-width:0.8;"/>
   </g>
  </g>
 </g>
 <defs>
  <clipPath id="p402d75d229">
   <rect height="120.96" width="357.12" x="57.6" y="41.472"/>
  </clipPath>
  <clipPath id="pa484817943">
   <rect height="120.96" width="357.12" x="57.6" y="186.624"/>
  </clipPath>
 </defs>
</svg>
