<svg xmlns="http://www.w3.org/2000/svg" xmlns:xlink="http://www.w3.org/1999/xlink" xmlns:lucid="lucid" width="951.83" height="360"><g transform="translate(3.957517574592373 0)" lucid:page-tab-id="fvHHJGNm8waG"><path d="M496.04 300c0 22.1-17.9 40-40 40s-40-17.9-40-40 17.9-40 40-40 40 17.9 40 40z" stroke="#3a414a" fill="#fff"/><use xlink:href="#a" transform="matrix(1,0,0,1,421.0424824254077,265) translate(20.833333333333336 39.65277777777778)"/><path d="M736.04 200c0 22.1-17.9 40-40 40s-40-17.9-40-40 17.9-40 40-40 40 17.9 40 40z" stroke="#3a414a" fill="#fff"/><use xlink:href="#b" transform="matrix(1,0,0,1,661.0424824254076,165) translate(28.51851851851852 39.65277777777778)"/><path d="M248.7 238.2l-3.65 4.63-7.5 8.7-6.44 6.86-5.8 5.7-5.4 4.84-5.08 4.22-4.87 3.7-4.72 3.28-4.62 2.93-4.53 2.63-4.5 2.36-4.5 2.1-4.53 1.9-4.57 1.7-4.63 1.52-4.73 1.32-4.84 1.13-5 .96-5.2.75-5.4.57-5.65.36-5.44.1-.02-1 5.43-.1 5.62-.36 5.35-.56 5.14-.76 4.95-.94 4.8-1.13 4.7-1.3 4.6-1.5 4.52-1.7 4.48-1.87 4.46-2.1 4.48-2.34 4.5-2.6 4.6-2.9 4.68-3.27 4.84-3.68 5.06-4.18 5.36-4.84 5.78-5.67 6.4-6.85 7.47-8.66 4.43-5.6zm150.55-136.73l-.6.07-5.16.76-4.97.94-4.8 1.13-4.7 1.3-4.6 1.5-4.5 1.7-4.5 1.87-4.46 2.1-4.47 2.34-4.5 2.6-4.6 2.9-4.67 3.27-4.85 3.68-5.05 4.18-5.36 4.84-5.78 5.67-6.43 6.85-7.45 8.65-49.24 67.5v-1.7l48.45-66.42 7.5-8.7 6.44-6.87 5.8-5.7 5.4-4.84 5.1-4.22 4.87-3.7 4.72-3.28 4.6-2.93 4.56-2.63 4.5-2.36 4.5-2.1 4.53-1.9 4.56-1.7 4.65-1.52 4.72-1.32 4.85-1.13 5-.96 5.2-.75.62-.07z" stroke="#3a414a" stroke-width=".05" fill="#3a414a"/><path d="M137.07 300.5h-.56l.04-.5v-.5h.5z" fill="#3a414a"/><path d="M137.1 300.5l-.6.03.02-.52-.02-.52.57-.02zm-.55-.98l.02.5-.03.46.5-.02-.02-.95z" stroke="#3a414a" stroke-width=".05" fill="#3a414a"/><path d="M413.93 100.1l-13.97 5.47-.55-9.25z" fill="#3a414a"/><path d="M415.54 100l-16.03 6.3-.63-10.64zm-15.12 4.86l11.9-4.67-12.37-3.22z" stroke="#3a414a" stroke-width=".05" fill="#3a414a"/><use xlink:href="#c" transform="matrix(1,0,0,1,248.69902035793515,220.48617911621605) translate(0 14.222222222222223)"/><path d="M225.1 100.5h-88.06v-1h88.06zm174.06 0H234.98v-1h164.18z" stroke="#3a414a" stroke-width=".05" fill="#3a414a"/><path d="M137.06 100.5h-.55l.04-.5v-.5h.52z" fill="#3a414a"/><path d="M137.08 100.53h-.6l.04-.52-.02-.53h.58zm-.53-1l.02.48-.03.47h.5v-.94z" stroke="#3a414a" stroke-width=".05" fill="#3a414a"/><path d="M413.92 100l-14.26 4.64v-9.28z" fill="#3a414a"/><path d="M415.54 100l-16.38 5.32V94.68zm-15.38 3.95L412.3 100l-12.14-3.95z" stroke="#3a414a" stroke-width=".05" fill="#3a414a"/><use xlink:href="#d" transform="matrix(1,0,0,1,225.10421082046938,89.33333333333333) translate(0 14.222222222222223)"/><path d="M237.1 300.5H137.05v-1H237.1zm162.06 0H246.98v-1h152.18z" stroke="#3a414a" stroke-width=".05" fill="#3a414a"/><path d="M137.06 300.5h-.55l.04-.5v-.5h.52z" fill="#3a414a"/><path d="M137.08 300.52h-.6l.04-.5-.02-.54h.58zm-.53-1l.02.5-.03.46h.5v-.96z" stroke="#3a414a" stroke-width=".05" fill="#3a414a"/><path d="M413.92 300l-14.26 4.64v-9.28z" fill="#3a414a"/><path d="M415.54 300l-16.38 5.32v-10.64zm-15.38 3.95L412.3 300l-12.14-3.95z" stroke="#3a414a" stroke-width=".05" fill="#3a414a"/><use xlink:href="#c" transform="matrix(1,0,0,1,237.10421082046938,289.33333333333337) translate(0 14.222222222222223)"/><path d="M591.6 167.98l4.68 5 3.9 3.84 3.5 3.15 3.22 2.66 3.04 2.3 2.92 2.04 2.83 1.8 2.77 1.6 2.76 1.44 2.75 1.3 2.77 1.17 2.8 1.04 2.85.94 2.92.82 3 .7 1.03.2-.2.98-1.03-.2-3.05-.72-2.96-.82-2.88-.94-2.84-1.06-2.8-1.18-2.8-1.3-2.8-1.47-2.8-1.63-2.88-1.82-2.95-2.05-3.07-2.34-3.25-2.68-3.52-3.17-3.94-3.87-4.72-5.04-21.4-26.07h1.3zm-91.2-68.4l3.65.23 3.46.37 3.3.5 3.16.6 3.05.7 2.97.83 2.9.94 2.83 1.06 2.8 1.18 2.8 1.3 2.8 1.47 2.8 1.63 2.88 1.82 2.95 2.05 3.07 2.34 3.26 2.68 2.17 1.96h-1.5l-1.33-1.2-3.22-2.67-3.04-2.3-2.9-2.04-2.85-1.8-2.8-1.6-2.74-1.44-2.76-1.3-2.76-1.17-2.8-1.04-2.85-.94-2.93-.82-3-.7-3.13-.6-3.26-.48-3.4-.35-3.6-.22-3.35-.07.03-1z" stroke="#3a414a" stroke-width=".05" fill="#3a414a"/><path d="M497.07 99.5l-.02 1h-.54l.04-.5v-.5z" fill="#3a414a"/><path d="M497.1 99.5l-.03 1.04-.58-.02.02-.5-.02-.55zm-.53.5l-.03.47.48.02.02-.96h-.5z" stroke="#3a414a" stroke-width=".05" fill="#3a414a"/><path d="M653.93 199.85l-14.64 3.26.87-9.22z" fill="#3a414a"/><path d="M655.54 200l-16.8 3.74 1-10.6zm-15.7 2.47l12.48-2.78-11.72-5.1z" stroke="#3a414a" stroke-width=".05" fill="#3a414a"/><use xlink:href="#e" transform="matrix(1,0,0,1,537.8433764380545,121.23624754345694) translate(0 14.222222222222223)"/><path d="M549.06 280.72l-3.26 2.7-3.07 2.33-2.95 2.05-2.87 1.82-2.8 1.63-2.8 1.46-2.8 1.32-2.8 1.18-2.83 1.06-2.9.94-2.96.82-3.04.72-3.16.6-3.3.5-3.45.35-3.64.22-3.34.07-.03-1 3.34-.08 3.6-.23 3.4-.36 3.27-.48 3.12-.6 3-.7 2.93-.82 2.84-.93 2.8-1.03 2.76-1.16 2.76-1.3 2.75-1.43 2.8-1.6 2.83-1.8 2.9-2.03 3.05-2.3 3.22-2.67 1.94-1.75h1.5zm90.3-78.68l-1.03.2-3 .7-2.93.82-2.85.93-2.8 1.03-2.77 1.16-2.75 1.3-2.76 1.43-2.78 1.6-2.84 1.8-2.92 2.03-3.04 2.3-3.22 2.67-3.5 3.15-3.9 3.84-4.7 5-20.38 24.87h-1.3l20.94-25.54 4.72-5.04 3.95-3.87 3.53-3.17 3.25-2.7 3.07-2.33 2.95-2.05 2.87-1.82 2.82-1.63 2.78-1.46 2.8-1.32 2.8-1.18 2.84-1.06 2.9-.94 2.95-.82 3.05-.72 1.04-.2z" stroke="#3a414a" stroke-width=".05" fill="#3a414a"/><path d="M497.07 300.5h-.56l.04-.5v-.5h.5z" fill="#3a414a"/><path d="M497.1 300.5l-.6.03.02-.52-.02-.52.57-.02zm-.55-.98l.02.5-.03.46.5-.02-.02-.95z" stroke="#3a414a" stroke-width=".05" fill="#3a414a"/><path d="M653.93 200.15l-13.76 5.97-.88-9.23z" fill="#3a414a"/><path d="M655.54 200l-15.8 6.85-1-10.6zm-14.94 5.4l11.72-5.1-12.47-2.77z" stroke="#3a414a" stroke-width=".05" fill="#3a414a"/><use xlink:href="#f" transform="matrix(1,0,0,1,532.9537029728382,256.88557957835286) translate(0 14.222222222222223)"/><path d="M136.04 300c0 22.1-17.9 40-40 40s-40-17.9-40-40 17.9-40 40-40 40 17.9 40 40z" stroke="#3a414a" fill="#fff"/><use xlink:href="#g" transform="matrix(1,0,0,1,61.04248242540763,265) translate(2.0385996553059513 39.16653070687651)"/><path d="M144.04 220c17.68 0 32 8.95 32 20s-14.32 20-32 20h-96c-17.67 0-32-8.95-32-20s14.33-20 32-20z" fill="#fff"/><use xlink:href="#h" transform="matrix(1,0,0,1,21.042482425407627,225) translate(63.2766049382716 19.65277777777778)"/><path d="M136.04 100c0 22.1-17.9 40-40 40s-40-17.9-40-40 17.9-40 40-40 40 17.9 40 40z" stroke="#3a414a" fill="#fff"/><use xlink:href="#i" transform="matrix(1,0,0,1,61.04248242540763,65) translate(2.0385996553059513 39.16653070687651)"/><path d="M144.04 20c17.68 0 32 8.95 32 20s-14.32 20-32 20h-96c-17.67 0-32-8.95-32-20s14.33-20 32-20z" fill="#fff"/><use xlink:href="#j" transform="matrix(1,0,0,1,21.042482425407627,25) translate(63.2766049382716 19.65277777777778)"/><path d="M496.04 100c0 22.1-17.9 40-40 40s-40-17.9-40-40 17.9-40 40-40 40 17.9 40 40z" stroke="#3a414a" fill="#fff"/><use xlink:href="#k" transform="matrix(1,0,0,1,421.0424824254077,65) translate(30.679012345679013 39.65277777777778)"/><path d="M504.04 20c17.68 0 32 8.95 32 20s-14.32 20-32 20h-96c-17.67 0-32-8.95-32-20s14.33-20 32-20z" fill="#fff"/><use xlink:href="#l" transform="matrix(1,0,0,1,381.0424824254077,25) translate(63.2766049382716 19.65277777777778)"/><path d="M504.04 220c17.68 0 32 8.95 32 20s-14.32 20-32 20h-96c-17.67 0-32-8.95-32-20s14.33-20 32-20z" fill="#fff"/><use xlink:href="#m" transform="matrix(1,0,0,1,381.0424824254075,225) translate(63.2766049382716 19.65277777777778)"/><path d="M744.04 120c17.68 0 32 8.95 32 20s-14.32 20-32 20h-96c-17.67 0-32-8.95-32-20s14.33-20 32-20z" fill="#fff"/><use xlink:href="#n" transform="matrix(1,0,0,1,621.0424824254076,125) translate(63.2766049382716 19.65277777777778)"/><path d="M779.74 200.5h-42.7v-1h42.7zm125.75 0H829.6v-1h75.87z" stroke="#3a414a" stroke-width=".05" fill="#3a414a"/><path d="M737.06 200.5h-.55l.04-.5v-.5h.52z" fill="#3a414a"/><path d="M737.08 200.53h-.6l.04-.52-.02-.53h.58zm-.53-1l.02.48-.03.47h.5v-.94z" stroke="#3a414a" stroke-width=".05" fill="#3a414a"/><path d="M920.26 200L906 204.64v-9.28z" fill="#3a414a"/><path d="M921.87 200l-16.38 5.32v-10.64zm-15.38 3.95l12.14-3.95-12.15-3.95z" stroke="#3a414a" stroke-width=".05" fill="#3a414a"/><use xlink:href="#o" transform="matrix(1,0,0,1,779.7430509832105,189.33333333333334) translate(0 14.222222222222223)"/><defs><path fill="#3a414a" d="M135-143c-3-34-86-38-87 0 15 53 115 12 119 90S17 21 10-45l28-5c4 36 97 45 98 0-10-56-113-15-118-90-4-57 82-63 122-42 12 7 21 19 24 35" id="p"/><path fill="#3a414a" d="M24-231v-30h32v30H24zM24 0v-190h32V0H24" id="q"/><path fill="#3a414a" d="M117-194c89-4 53 116 60 194h-32v-121c0-31-8-49-39-48C34-167 62-67 57 0H25l-1-190h30c1 10-1 24 2 32 11-22 29-35 61-36" id="r"/><g id="a"><use transform="matrix(0.06172839506172839,0,0,0.06172839506172839,0,0)" xlink:href="#p"/><use transform="matrix(0.06172839506172839,0,0,0.06172839506172839,11.11111111111111,0)" xlink:href="#q"/><use transform="matrix(0.06172839506172839,0,0,0.06172839506172839,15.987654320987653,0)" xlink:href="#r"/></g><path fill="#3a414a" d="M118-107v75H92v-75H18v-26h74v-75h26v75h74v26h-74" id="s"/><use transform="matrix(0.06172839506172839,0,0,0.06172839506172839,0,0)" xlink:href="#s" id="b"/><path fill="#333" d="M123 10C108 53 80 86 19 72V37c35 8 53-11 59-39L3-190h52l48 148c12-52 28-100 44-148h51" id="t"/><use transform="matrix(0.04938271604938272,0,0,0.04938271604938272,0,0)" xlink:href="#t" id="c"/><path fill="#333" d="M144 0l-44-69L55 0H2l70-98-66-92h53l41 62 40-62h54l-67 91 71 99h-54" id="u"/><use transform="matrix(0.04938271604938272,0,0,0.04938271604938272,0,0)" xlink:href="#u" id="d"/><path fill="#333" d="M128 0H69L1-190h53L99-40l48-150h52" id="v"/><path fill="#333" d="M23 0v-37h61v-169l-59 37v-38l62-41h46v211h57V0H23" id="w"/><path fill="#333" d="M86-200l42-18 12 35-44 11 32 37-32 21-26-44-26 44-32-21 33-37-44-11 12-35 42 18-3-48h38" id="x"/><path fill="#333" d="M182-182c0 78-84 86-111 141h115V0H12c-6-101 99-100 120-180 1-22-12-31-33-32-23 0-32 14-35 34l-49-3c5-45 32-70 84-70 51 0 83 22 83 69" id="y"/><g id="e"><use transform="matrix(0.04938271604938272,0,0,0.04938271604938272,0,0)" xlink:href="#v"/><use transform="matrix(0.04938271604938272,0,0,0.04938271604938272,9.876543209876544,0)" xlink:href="#w"/><use transform="matrix(0.04938271604938272,0,0,0.04938271604938272,19.75308641975309,0)" xlink:href="#x"/><use transform="matrix(0.04938271604938272,0,0,0.04938271604938272,26.666666666666668,0)" xlink:href="#v"/><use transform="matrix(0.04938271604938272,0,0,0.04938271604938272,36.543209876543216,0)" xlink:href="#y"/></g><path fill="#333" d="M137-138c1-29-70-34-71-4 15 46 118 7 119 86 1 83-164 76-172 9l43-7c4 19 20 25 44 25 33 8 57-30 24-41C81-84 22-81 20-136c-2-80 154-74 161-7" id="z"/><path fill="#333" d="M25-224v-37h50v37H25zM25 0v-190h50V0H25" id="A"/><path fill="#333" d="M135-194c87-1 58 113 63 194h-50c-7-57 23-157-34-157-59 0-34 97-39 157H25l-1-190h47c2 12-1 28 3 38 12-26 28-41 61-42" id="B"/><path fill="#333" d="M67-93c0 74 22 123 53 168H70C40 30 18-18 18-93s22-123 52-168h50c-32 44-53 94-53 168" id="C"/><path fill="#333" d="M102-93c0 74-22 123-52 168H0C30 29 54-18 53-93c0-74-22-123-53-168h50c30 45 52 94 52 168" id="D"/><g id="f"><use transform="matrix(0.04938271604938272,0,0,0.04938271604938272,0,0)" xlink:href="#z"/><use transform="matrix(0.04938271604938272,0,0,0.04938271604938272,9.876543209876544,0)" xlink:href="#A"/><use transform="matrix(0.04938271604938272,0,0,0.04938271604938272,14.814814814814817,0)" xlink:href="#B"/><use transform="matrix(0.04938271604938272,0,0,0.04938271604938272,25.629629629629633,0)" xlink:href="#C"/><use transform="matrix(0.04938271604938272,0,0,0.04938271604938272,31.506172839506174,0)" xlink:href="#v"/><use transform="matrix(0.04938271604938272,0,0,0.04938271604938272,41.38271604938272,0)" xlink:href="#y"/><use transform="matrix(0.04938271604938272,0,0,0.04938271604938272,51.25925925925927,0)" xlink:href="#D"/></g><path fill="#3a414a" d="M108 0H70L1-190h34L89-25l56-165h34" id="E"/><path fill="#3a414a" d="M141-36C126-15 110 5 73 4 37 3 15-17 15-53c-1-64 63-63 125-63 3-35-9-54-41-54-24 1-41 7-42 31l-33-3c5-37 33-52 76-52 45 0 72 20 72 64v82c-1 20 7 32 28 27v20c-31 9-61-2-59-35zM48-53c0 20 12 33 32 33 41-3 63-29 60-74-43 2-92-5-92 41" id="F"/><path fill="#3a414a" d="M114-163C36-179 61-72 57 0H25l-1-190h30c1 12-1 29 2 39 6-27 23-49 58-41v29" id="G"/><path fill="#3a414a" d="M115-194c53 0 69 39 70 98 0 66-23 100-70 100C84 3 66-7 56-30L54 0H23l1-261h32v101c10-23 28-34 59-34zm-8 174c40 0 45-34 45-75 0-40-5-75-45-74-42 0-51 32-51 76 0 43 10 73 51 73" id="H"/><path fill="#3a414a" d="M24 0v-261h32V0H24" id="I"/><path fill="#3a414a" d="M100-194c63 0 86 42 84 106H49c0 40 14 67 53 68 26 1 43-12 49-29l28 8c-11 28-37 45-77 45C44 4 14-33 15-96c1-61 26-98 85-98zm52 81c6-60-76-77-97-28-3 7-6 17-6 28h103" id="J"/><g id="g"><use transform="matrix(0.05244455106554343,0,0,0.05244455106554343,0,0)" xlink:href="#E"/><use transform="matrix(0.05244455106554343,0,0,0.05244455106554343,9.440019191797818,0)" xlink:href="#F"/><use transform="matrix(0.05244455106554343,0,0,0.05244455106554343,19.928929404906505,0)" xlink:href="#G"/><use transform="matrix(0.05244455106554343,0,0,0.05244455106554343,26.169830981706173,0)" xlink:href="#q"/><use transform="matrix(0.05244455106554343,0,0,0.05244455106554343,30.312950515884104,0)" xlink:href="#H"/><use transform="matrix(0.05244455106554343,0,0,0.05244455106554343,40.80186072899279,0)" xlink:href="#F"/><use transform="matrix(0.05244455106554343,0,0,0.05244455106554343,51.29077094210148,0)" xlink:href="#I"/><use transform="matrix(0.05244455106554343,0,0,0.05244455106554343,55.433890476279416,0)" xlink:href="#J"/></g><path fill="#3a414a" d="M101-251c82-7 93 87 43 132L82-64C71-53 59-42 53-27h129V0H18c2-99 128-94 128-182 0-28-16-43-45-43s-46 15-49 41l-32-3c6-41 34-60 81-64" id="K"/><g id="h"><use transform="matrix(0.06172839506172839,0,0,0.06172839506172839,0,0)" xlink:href="#E"/><use transform="matrix(0.06172839506172839,0,0,0.06172839506172839,11.11111111111111,0)" xlink:href="#K"/></g><g id="i"><use transform="matrix(0.05244455106554343,0,0,0.05244455106554343,0,0)" xlink:href="#E"/><use transform="matrix(0.05244455106554343,0,0,0.05244455106554343,9.440019191797818,0)" xlink:href="#F"/><use transform="matrix(0.05244455106554343,0,0,0.05244455106554343,19.928929404906505,0)" xlink:href="#G"/><use transform="matrix(0.05244455106554343,0,0,0.05244455106554343,26.169830981706173,0)" xlink:href="#q"/><use transform="matrix(0.05244455106554343,0,0,0.05244455106554343,30.312950515884104,0)" xlink:href="#F"/><use transform="matrix(0.05244455106554343,0,0,0.05244455106554343,40.80186072899279,0)" xlink:href="#H"/><use transform="matrix(0.05244455106554343,0,0,0.05244455106554343,51.29077094210148,0)" xlink:href="#I"/><use transform="matrix(0.05244455106554343,0,0,0.05244455106554343,55.433890476279416,0)" xlink:href="#J"/></g><path fill="#3a414a" d="M27 0v-27h64v-190l-56 39v-29l58-41h29v221h61V0H27" id="L"/><g id="j"><use transform="matrix(0.06172839506172839,0,0,0.06172839506172839,0,0)" xlink:href="#E"/><use transform="matrix(0.06172839506172839,0,0,0.06172839506172839,11.11111111111111,0)" xlink:href="#L"/></g><path fill="#3a414a" d="M80-196l47-18 7 23-49 13 32 44-20 13-27-46-27 45-21-12 33-44-49-13 8-23 47 19-2-53h23" id="M"/><use transform="matrix(0.06172839506172839,0,0,0.06172839506172839,0,0)" xlink:href="#M" id="k"/><path fill="#3a414a" d="M126-127c33 6 58 20 58 59 0 88-139 92-164 29-3-8-5-16-6-25l32-3c6 27 21 44 54 44 32 0 52-15 52-46 0-38-36-46-79-43v-28c39 1 72-4 72-42 0-27-17-43-46-43-28 0-47 15-49 41l-32-3c6-42 35-63 81-64 48-1 79 21 79 65 0 36-21 52-52 59" id="N"/><g id="l"><use transform="matrix(0.06172839506172839,0,0,0.06172839506172839,0,0)" xlink:href="#E"/><use transform="matrix(0.06172839506172839,0,0,0.06172839506172839,11.11111111111111,0)" xlink:href="#N"/></g><path fill="#3a414a" d="M155-56V0h-30v-56H8v-25l114-167h33v167h35v25h-35zm-30-156c-27 46-58 90-88 131h88v-131" id="O"/><g id="m"><use transform="matrix(0.06172839506172839,0,0,0.06172839506172839,0,0)" xlink:href="#E"/><use transform="matrix(0.06172839506172839,0,0,0.06172839506172839,11.11111111111111,0)" xlink:href="#O"/></g><path fill="#3a414a" d="M54-142c48-35 137-8 131 61C196 18 31 33 14-55l32-4c7 23 22 37 52 37 35-1 51-22 54-58 4-55-73-65-99-34H22l8-134h141v27H59" id="P"/><g id="n"><use transform="matrix(0.06172839506172839,0,0,0.06172839506172839,0,0)" xlink:href="#E"/><use transform="matrix(0.06172839506172839,0,0,0.06172839506172839,11.11111111111111,0)" xlink:href="#P"/></g><path fill="#333" d="M128-127c34 4 56 21 59 58 7 91-148 94-172 28-4-9-6-17-7-26l51-5c1 24 16 35 40 36 23 0 39-12 38-36-1-31-31-36-65-34v-40c32 2 59-3 59-33 0-20-13-33-34-33s-33 13-35 32l-50-3c6-44 37-68 86-68 50 0 83 20 83 66 0 35-22 52-53 58" id="Q"/><path fill="#333" d="M125-100v72H85v-72H15v-39h70v-72h40v72h71v39h-71" id="R"/><path fill="#333" d="M165-50V0h-47v-50H5v-38l105-160h55v161h33v37h-33zm-47-37l2-116L46-87h72" id="S"/><g id="o"><use transform="matrix(0.04938271604938272,0,0,0.04938271604938272,0,0)" xlink:href="#v"/><use transform="matrix(0.04938271604938272,0,0,0.04938271604938272,9.876543209876544,0)" xlink:href="#Q"/><use transform="matrix(0.04938271604938272,0,0,0.04938271604938272,19.75308641975309,0)" xlink:href="#R"/><use transform="matrix(0.04938271604938272,0,0,0.04938271604938272,30.123456790123466,0)" xlink:href="#v"/><use transform="matrix(0.04938271604938272,0,0,0.04938271604938272,40.00000000000001,0)" xlink:href="#S"/></g></defs></g></svg>