<svg xmlns="http://www.w3.org/2000/svg" xmlns:xlink="http://www.w3.org/1999/xlink" xmlns:lucid="lucid" width="972.87" height="760"><g transform="translate(20 0)" lucid:page-tab-id="7KRHV.Sv5UNA"><path d="M480 300c0 22.1-17.9 40-40 40s-40-17.9-40-40 17.9-40 40-40 40 17.9 40 40z" stroke="#3a414a" fill="#fff"/><use xlink:href="#a" transform="matrix(1,0,0,1,405.0000000000001,265) translate(20.833333333333336 39.65277777777778)"/><path d="M720 200c0 22.1-17.9 40-40 40s-40-17.9-40-40 17.9-40 40-40 40 17.9 40 40z" stroke="#3a414a" fill="#ffd9d9"/><use xlink:href="#b" transform="matrix(1,0,0,1,644.9999999999999,165) translate(28.51851851851852 39.65277777777778)"/><path d="M232.66 238.2l-3.66 4.63-7.48 8.7-6.45 6.86-5.8 5.7-5.4 4.84-5.1 4.22-4.86 3.7-4.72 3.28-4.6 2.93-4.56 2.63-4.5 2.36-4.5 2.1-4.53 1.9-4.57 1.7-4.63 1.52-4.73 1.32-4.85 1.13-5 .96-5.2.75-5.4.57-5.65.36-5.46.1v-1l5.43-.1 5.62-.36 5.36-.56 5.15-.76 4.96-.94 4.82-1.13 4.7-1.3 4.58-1.5 4.53-1.7 4.48-1.87 4.47-2.1 4.47-2.34 4.5-2.6 4.6-2.9 4.68-3.27 4.84-3.68 5.06-4.18 5.35-4.84 5.78-5.67 6.42-6.85 7.46-8.66 4.43-5.6zM383.2 101.48l-.6.07-5.15.76-4.96.94-4.82 1.13-4.7 1.3-4.58 1.5-4.53 1.7-4.48 1.87-4.47 2.1-4.47 2.34-4.5 2.6-4.6 2.9-4.68 3.27-4.84 3.68-5.06 4.18-5.35 4.84-5.78 5.67-6.42 6.85-7.45 8.65-49.25 67.5v-1.7L291 157.18l7.48-8.7 6.45-6.87 5.8-5.7 5.4-4.84 5.1-4.22 4.86-3.7 4.72-3.28 4.6-2.93 4.56-2.63 4.5-2.36 4.5-2.1 4.53-1.9 4.57-1.7 4.63-1.52 4.73-1.32 4.85-1.13 5-.96 5.2-.75.62-.07z" stroke="#3a414a" stroke-width=".05" fill="#3a414a"/><path d="M121.03 300.5h-.56l.03-.5-.02-.5h.53z" fill="#3a414a"/><path d="M121.05 300.5l-.6.03.03-.52-.02-.52.57-.02zm-.54-.98l.03.5-.03.46.5-.02-.02-.95z" stroke="#3a414a" stroke-width=".05" fill="#3a414a"/><path d="M397.88 100.1l-13.96 5.47-.55-9.25z" fill="#3a414a"/><path d="M399.5 100l-16.04 6.3-.63-10.64zm-15.12 4.86l11.9-4.67-12.37-3.22z" stroke="#3a414a" stroke-width=".05" fill="#3a414a"/><use xlink:href="#c" transform="matrix(1,0,0,1,232.65653793252756,220.48617911621608) translate(0 14.222222222222223)"/><path d="M209.06 101H121.5v-2h87.56zM381 101H218.94v-2H381z" stroke="#ff8f8f" stroke-width=".05" fill="#ff8f8f"/><path d="M121.53 101h-1.1l.07-1-.04-1h1.07z" fill="#ff8f8f"/><path d="M121.55 101.03h-1.14l.08-1.02-.04-1.03h1.1zm-1.06-2l.03.98-.06.97h1.03v-1.94z" stroke="#ff8f8f" stroke-width=".05" fill="#ff8f8f"/><path d="M396.26 100L382 104.64v-9.28z" fill="#ff8f8f"/><path d="M399.5 100l-18.5 6V94zm-16.5 3.26l10.03-3.26L383 96.74z" stroke="#ff8f8f" stroke-width=".05" fill="#ff8f8f"/><use xlink:href="#d" transform="matrix(1,0,0,1,209.06172839506178,89.33333333333333) translate(0 14.222222222222223)"/><path d="M221.06 300.5H121v-1h100.06zm162.06 0H230.94v-1h152.18z" stroke="#3a414a" stroke-width=".05" fill="#3a414a"/><path d="M121.02 300.5h-.55l.03-.5-.02-.5h.54z" fill="#3a414a"/><path d="M121.04 300.52h-.6l.04-.5-.02-.54h.58zm-.53-1l.03.5-.03.46h.5v-.96z" stroke="#3a414a" stroke-width=".05" fill="#3a414a"/><path d="M397.88 300l-14.26 4.64v-9.28z" fill="#3a414a"/><path d="M399.5 300l-16.38 5.32v-10.64zm-15.38 3.95l12.14-3.95-12.14-3.95z" stroke="#3a414a" stroke-width=".05" fill="#3a414a"/><use xlink:href="#c" transform="matrix(1,0,0,1,221.06172839506178,289.33333333333337) translate(0 14.222222222222223)"/><path d="M575.92 167.65l4.67 4.98 3.9 3.83 3.47 3.13 3.2 2.64 3.02 2.3 2.9 2 2.8 1.8 2.77 1.6 2.74 1.43 2.74 1.28 2.75 1.16 2.77 1.04 2.83.92 2.9.8 1.97.47-.45 1.95-2.02-.47-2.98-.82-2.9-.95-2.87-1.06-2.82-1.2-2.8-1.3-2.82-1.48-2.83-1.65-2.9-1.83-2.95-2.07-3.1-2.34-3.26-2.7-3.54-3.18-3.96-3.9-4.74-5.05-21.65-26.4h2.58zM484.4 99.08l3.65.23 3.48.38 3.3.48 3.2.6 3.07.73 2.98.82 2.9.95 2.87 1.06 2.82 1.2 2.8 1.3 2.82 1.48 2.83 1.65 2.9 1.83 2.95 2.07 3.1 2.34 3.26 2.7 2.6 2.34h-3l-.9-.83-3.2-2.64-3.03-2.3-2.9-2-2.8-1.8-2.77-1.6-2.74-1.43-2.74-1.28-2.75-1.16-2.77-1.04-2.83-.92-2.9-.8-3-.7-3.1-.6-3.22-.48-3.4-.36-3.57-.22-2.82-.06.04-2z" stroke="#ff8f8f" stroke-width=".05" fill="#ff8f8f"/><path d="M481.55 99.02l-.04 2-1.06-.02.06-1-.04-1z" fill="#ff8f8f"/><path d="M481.57 99l-.04 2.05-1.12-.03.08-1-.04-1.05zm-1.04 1l-.06.97 1 .03.05-1.95-1.03-.03z" stroke="#ff8f8f" stroke-width=".05" fill="#ff8f8f"/><path d="M636.28 199.65l-14.68 3.07 1-9.22z" fill="#ff8f8f"/><path d="M639.5 200l-19.04 3.98 1.3-11.95zm-16.76 1.46l10.33-2.16-9.62-4.32z" stroke="#ff8f8f" stroke-width=".05" fill="#ff8f8f"/><use xlink:href="#e" transform="matrix(1,0,0,1,521.8008940126468,121.23624754345691) translate(0 14.222222222222223)"/><path d="M533 280.72l-3.24 2.7-3.07 2.33-2.96 2.05-2.87 1.82-2.82 1.63-2.8 1.46-2.78 1.32-2.8 1.18-2.85 1.06-2.9.94-2.95.82-3.05.72-3.16.6-3.3.5-3.45.35-3.63.22-3.36.07v-1l3.33-.08 3.6-.23 3.4-.36 3.26-.48 3.1-.6 3.02-.7 2.92-.82 2.85-.93 2.8-1.03 2.76-1.16 2.75-1.3 2.77-1.43 2.78-1.6 2.84-1.8 2.9-2.03 3.04-2.3 3.22-2.67 1.94-1.75h1.5zm90.3-78.68l-1 .2-3.02.7-2.92.82-2.85.93-2.8 1.03-2.76 1.16-2.75 1.3-2.77 1.43-2.78 1.6-2.84 1.8-2.9 2.03-3.04 2.3-3.22 2.67-3.5 3.15-3.9 3.84-4.7 5-20.4 24.87h-1.28l20.94-25.54 4.72-5.04 3.95-3.87 3.52-3.17 3.24-2.7 3.07-2.33 2.96-2.05 2.87-1.82 2.82-1.63 2.8-1.46 2.78-1.32 2.8-1.18 2.85-1.06 2.9-.94 2.95-.82 3.05-.72 1.04-.2z" stroke="#3a414a" stroke-width=".05" fill="#3a414a"/><path d="M481.03 300.5h-.56l.03-.5-.02-.5h.53z" fill="#3a414a"/><path d="M481.05 300.5l-.6.03.03-.52-.02-.52.57-.02zm-.54-.98l.03.5-.03.46.5-.02-.02-.95z" stroke="#3a414a" stroke-width=".05" fill="#3a414a"/><path d="M637.9 200.15l-13.77 5.97-.88-9.23z" fill="#3a414a"/><path d="M639.5 200l-15.8 6.85-1.02-10.6zm-14.94 5.4l11.72-5.1-12.47-2.77z" stroke="#3a414a" stroke-width=".05" fill="#3a414a"/><use xlink:href="#f" transform="matrix(1,0,0,1,516.9112205474306,256.88557957835286) translate(0 14.222222222222223)"/><path d="M120 300c0 22.1-17.9 40-40 40s-40-17.9-40-40 17.9-40 40-40 40 17.9 40 40z" stroke="#3a414a" fill="#fff"/><use xlink:href="#g" transform="matrix(1,0,0,1,45,265) translate(2.0385996553059513 39.16653070687651)"/><path d="M128 220c17.67 0 32 8.95 32 20s-14.33 20-32 20H32c-17.67 0-32-8.95-32-20s14.33-20 32-20z" fill="#fff"/><use xlink:href="#h" transform="matrix(1,0,0,1,5,225) translate(63.2766049382716 19.65277777777778)"/><path d="M120 100c0 22.1-17.9 40-40 40s-40-17.9-40-40 17.9-40 40-40 40 17.9 40 40z" stroke="#3a414a" fill="#ffd9d9"/><use xlink:href="#i" transform="matrix(1,0,0,1,45,65) translate(2.0385996553059513 39.16653070687651)"/><path d="M128 20c17.67 0 32 8.95 32 20s-14.33 20-32 20H32C14.33 60 0 51.05 0 40s14.33-20 32-20z" fill="#fff"/><use xlink:href="#j" transform="matrix(1,0,0,1,5,25) translate(63.2766049382716 19.65277777777778)"/><path d="M480 100c0 22.1-17.9 40-40 40s-40-17.9-40-40 17.9-40 40-40 40 17.9 40 40z" stroke="#3a414a" fill="#ffd9d9"/><use xlink:href="#k" transform="matrix(1,0,0,1,405.0000000000001,65) translate(30.679012345679013 39.65277777777778)"/><path d="M488 20c17.67 0 32 8.95 32 20s-14.33 20-32 20h-96c-17.67 0-32-8.95-32-20s14.33-20 32-20z" fill="#fff"/><use xlink:href="#l" transform="matrix(1,0,0,1,365.0000000000001,25) translate(63.2766049382716 19.65277777777778)"/><path d="M488 220c17.67 0 32 8.95 32 20s-14.33 20-32 20h-96c-17.67 0-32-8.95-32-20s14.33-20 32-20z" fill="#fff"/><use xlink:href="#m" transform="matrix(1,0,0,1,364.9999999999999,225) translate(63.2766049382716 19.65277777777778)"/><path d="M728 120c17.67 0 32 8.95 32 20s-14.33 20-32 20h-96c-17.67 0-32-8.95-32-20s14.33-20 32-20z" fill="#fff"/><use xlink:href="#n" transform="matrix(1,0,0,1,604.9999999999999,125) translate(63.2766049382716 19.65277777777778)"/><path d="M763.7 201h-42.2v-2h42.2zm123.63 0h-73.75v-2h73.75z" stroke="#ff8f8f" stroke-width=".05" fill="#ff8f8f"/><path d="M721.53 201h-1.1l.07-1-.04-1h1.07z" fill="#ff8f8f"/><path d="M721.55 201.03h-1.14l.08-1.02-.04-1.03h1.1zm-1.06-2l.03.98-.06.97h1.03v-1.94z" stroke="#ff8f8f" stroke-width=".05" fill="#ff8f8f"/><path d="M902.6 200l-14.27 4.64v-9.28z" fill="#ff8f8f"/><path d="M905.83 200l-18.5 6v-12zm-16.5 3.26l10.03-3.26-10.03-3.26z" stroke="#ff8f8f" stroke-width=".05" fill="#ff8f8f"/><use xlink:href="#o" transform="matrix(1,0,0,1,763.7005685578029,189.33333333333334) translate(0 14.222222222222223)"/><path d="M496.04 700c0 22.1-17.9 40-40 40s-40-17.9-40-40 17.9-40 40-40 40 17.9 40 40z" stroke="#3a414a" fill="#c3f7c8"/><use xlink:href="#a" transform="matrix(1,0,0,1,421.0424824254076,665) translate(20.833333333333336 39.65277777777778)"/><path d="M736.04 600c0 22.1-17.9 40-40 40s-40-17.9-40-40 17.9-40 40-40 40 17.9 40 40z" stroke="#3a414a" fill="#c3f7c8"/><use xlink:href="#b" transform="matrix(1,0,0,1,661.0424824254076,565) translate(28.51851851851852 39.65277777777778)"/><path d="M248.7 639l-3.27 4.15-7.5 8.7-6.46 6.9-5.83 5.7-5.4 4.87-5.1 4.23-4.9 3.7-4.74 3.3-4.63 2.95-4.56 2.64-4.52 2.36-4.52 2.13-4.54 1.9-4.58 1.7-4.66 1.53-4.74 1.32-4.88 1.14-5.02.96-5.2.77-5.43.57-5.67.36-4.96.1-.04-2 4.92-.1 5.6-.35 5.34-.56 5.1-.76 4.95-.93 4.8-1.13 4.66-1.3 4.58-1.5 4.5-1.66 4.47-1.88 4.44-2.1 4.44-2.32 4.5-2.6 4.56-2.9 4.67-3.23 4.82-3.67 5.03-4.17 5.34-4.8 5.77-5.66 6.4-6.82 7.45-8.64 4.8-6.1zm148.54-136.75l-3.66.54-4.94.93-4.8 1.13-4.66 1.3-4.57 1.5-4.5 1.66-4.46 1.88-4.44 2.1-4.46 2.32-4.5 2.6-4.55 2.9-4.68 3.23-4.83 3.67-5.05 4.17-5.34 4.8-5.76 5.66-6.4 6.82-7.43 8.63-49.62 68.04v-3.4l48.06-65.87 7.5-8.72 6.47-6.9 5.84-5.7 5.4-4.87 5.1-4.23 4.9-3.7 4.74-3.3 4.63-2.95 4.58-2.64 4.53-2.36 4.53-2.13 4.53-1.9 4.6-1.7 4.64-1.53 4.75-1.32 4.87-1.14 5.02-.96 3.7-.55z" stroke="#00c2a8" stroke-width=".05" fill="#00c2a8"/><path d="M137.6 700.98l-1.12.02.06-1-.03-1 1.05-.02z" fill="#00c2a8"/><path d="M137.62 701l-1.17.03.07-1.02-.04-1.02 1.1-.03zm-1.1-1.97l.05.98-.06.98 1.07-.03-.04-1.95z" stroke="#00c2a8" stroke-width=".05" fill="#00c2a8"/><path d="M412.3 500.22l-13.9 5.6-.64-9.25z" fill="#00c2a8"/><path d="M415.54 500l-18.05 7.26-.83-12zm-16.24 4.38l9.8-3.94-10.24-2.57z" stroke="#00c2a8" stroke-width=".05" fill="#00c2a8"/><use xlink:href="#c" transform="matrix(1,0,0,1,248.699020357935,620.4861791162161) translate(0 14.222222222222223)"/><path d="M225.1 500.5h-88.06v-1h88.06zm174.06 0H234.98v-1h164.18z" stroke="#3a414a" stroke-width=".05" fill="#3a414a"/><path d="M137.06 500.5h-.55l.04-.5v-.5h.52z" fill="#3a414a"/><path d="M137.08 500.52h-.6l.04-.5-.02-.54h.58zm-.53-1l.02.5-.03.46h.5v-.96z" stroke="#3a414a" stroke-width=".05" fill="#3a414a"/><path d="M413.92 500l-14.26 4.64v-9.28z" fill="#3a414a"/><path d="M415.54 500l-16.38 5.32v-10.64zm-15.38 3.95L412.3 500l-12.14-3.95z" stroke="#3a414a" stroke-width=".05" fill="#3a414a"/><use xlink:href="#d" transform="matrix(1,0,0,1,225.1042108204693,489.3333333333333) translate(0 14.222222222222223)"/><path d="M237.1 701h-99.55v-2h99.55zm159.94 0H246.98v-2h150.06z" stroke="#00c2a8" stroke-width=".05" fill="#00c2a8"/><path d="M137.57 701h-1.1l.07-1-.03-1h1.07z" fill="#00c2a8"/><path d="M137.6 701.02h-1.15l.07-1-.04-1.04h1.12zm-1.07-2l.04 1-.06.96h1.05V699z" stroke="#00c2a8" stroke-width=".05" fill="#00c2a8"/><path d="M412.3 700l-14.26 4.64v-9.28z" fill="#00c2a8"/><path d="M415.54 700l-18.5 6v-12zm-16.5 3.26l10.03-3.26-10.03-3.26z" stroke="#00c2a8" stroke-width=".05" fill="#00c2a8"/><use xlink:href="#c" transform="matrix(1,0,0,1,237.10421082046932,689.3333333333335) translate(0 14.222222222222223)"/><path d="M591.97 567.65l4.67 4.98 3.9 3.83 3.47 3.13 3.2 2.64 3.03 2.3 2.9 2 2.82 1.8 2.76 1.6 2.75 1.43 2.74 1.28 2.73 1.16 2.78 1.04 2.84.92 2.9.8 1.98.47-.46 1.95-2-.47-3-.82-2.9-.95-2.86-1.06-2.83-1.2-2.8-1.3-2.82-1.48-2.84-1.65-2.87-1.83-2.97-2.07-3.1-2.34-3.26-2.7-3.53-3.18-3.96-3.9-4.74-5.05-21.65-26.4h2.6zm-91.54-68.57l3.67.23 3.47.38 3.32.48 3.17.6 3.07.73 2.98.82 2.9.95 2.87 1.06 2.8 1.2 2.82 1.3 2.8 1.48 2.85 1.65 2.9 1.83 2.96 2.07 3.1 2.34 3.25 2.7 2.6 2.34h-3l-.9-.83-3.2-2.64-3.03-2.3-2.9-2-2.8-1.8-2.78-1.6-2.74-1.43-2.73-1.28-2.75-1.16-2.78-1.04-2.83-.92-2.9-.8-3-.7-3.1-.6-3.22-.48-3.4-.36-3.57-.22-2.83-.06.05-2z" stroke="#00c2a8" stroke-width=".05" fill="#00c2a8"/><path d="M497.6 499.02l-.05 2-1.07-.02.06-1-.03-1z" fill="#00c2a8"/><path d="M497.62 499l-.05 2.05-1.12-.03.07-1-.04-1.05zm-1.05 1l-.06.97 1.03.03.04-1.95-1.04-.03z" stroke="#00c2a8" stroke-width=".05" fill="#00c2a8"/><path d="M652.33 599.65l-14.7 3.07 1-9.22z" fill="#00c2a8"/><path d="M655.54 600l-19.04 3.98 1.3-11.95zm-16.76 1.46l10.33-2.16-9.6-4.32z" stroke="#00c2a8" stroke-width=".05" fill="#00c2a8"/><use xlink:href="#e" transform="matrix(1,0,0,1,537.8433764380544,521.236247543457) translate(0 14.222222222222223)"/><path d="M549.38 681.1l-3.26 2.7-3.1 2.35-2.96 2.07-2.9 1.83-2.83 1.64-2.8 1.46-2.82 1.32-2.8 1.2-2.87 1.05-2.9.95-3 .83-3.06.73-3.18.6-3.33.5-3.47.36-3.67.22-2.86.06-.05-2 2.83-.06 3.58-.22 3.4-.36 3.22-.48 3.1-.6 3-.7 2.9-.8 2.82-.92 2.78-1.03 2.75-1.15 2.73-1.28 2.74-1.44 2.77-1.6 2.8-1.78 2.9-2.02 3.03-2.3 3.2-2.64 1.52-1.38h2.98zm88.04-78.13l-1.98.46-2.9.8-2.83.93-2.77 1.03-2.74 1.15-2.75 1.28-2.74 1.44-2.75 1.6-2.82 1.78-2.9 2.02-3.02 2.3-3.2 2.64-3.46 3.14-3.9 3.83-4.67 4.98-20.13 24.54h-2.58l21.2-25.87 4.75-5.06 3.97-3.9 3.53-3.17 3.27-2.7 3.1-2.35 2.96-2.07 2.88-1.83 2.85-1.64 2.8-1.46 2.82-1.32 2.83-1.2 2.85-1.05 2.92-.95 2.98-.83 2-.48z" stroke="#00c2a8" stroke-width=".05" fill="#00c2a8"/><path d="M497.6 700.98l-1.12.02.06-1-.03-1 1.05-.02z" fill="#00c2a8"/><path d="M497.62 701l-1.17.03.07-1.02-.04-1.02 1.1-.03zm-1.1-1.97l.05.98-.06.98 1.07-.03-.04-1.95z" stroke="#00c2a8" stroke-width=".05" fill="#00c2a8"/><path d="M652.33 600.35l-13.7 6.15-1-9.22z" fill="#00c2a8"/><path d="M655.54 600l-17.74 7.97-1.3-11.95zm-16.05 5.02l9.6-4.32-10.32-2.16z" stroke="#00c2a8" stroke-width=".05" fill="#00c2a8"/><use xlink:href="#f" transform="matrix(1,0,0,1,532.953702972838,656.8855795783529) translate(0 14.222222222222223)"/><path d="M136.04 700c0 22.1-17.9 40-40 40s-40-17.9-40-40 17.9-40 40-40 40 17.9 40 40z" stroke="#3a414a" fill="#c3f7c8"/><use xlink:href="#g" transform="matrix(1,0,0,1,61.04248242540757,665) translate(2.0385996553059513 39.16653070687651)"/><path d="M144.04 620c17.68 0 32 8.95 32 20s-14.32 20-32 20h-96c-17.67 0-32-8.95-32-20s14.33-20 32-20z" fill="#fff"/><use xlink:href="#h" transform="matrix(1,0,0,1,21.04248242540757,625) translate(63.2766049382716 19.65277777777778)"/><path d="M136.04 500c0 22.1-17.9 40-40 40s-40-17.9-40-40 17.9-40 40-40 40 17.9 40 40z" stroke="#3a414a" fill="#fff"/><use xlink:href="#i" transform="matrix(1,0,0,1,61.04248242540757,465) translate(2.0385996553059513 39.16653070687651)"/><path d="M144.04 420c17.68 0 32 8.95 32 20s-14.32 20-32 20h-96c-17.67 0-32-8.95-32-20s14.33-20 32-20z" fill="#fff"/><use xlink:href="#j" transform="matrix(1,0,0,1,21.04248242540757,425) translate(63.2766049382716 19.65277777777778)"/><path d="M496.04 500c0 22.1-17.9 40-40 40s-40-17.9-40-40 17.9-40 40-40 40 17.9 40 40z" stroke="#3a414a" fill="#c3f7c8"/><use xlink:href="#k" transform="matrix(1,0,0,1,421.0424824254076,465) translate(30.679012345679013 39.65277777777778)"/><path d="M504.04 420c17.68 0 32 8.95 32 20s-14.32 20-32 20h-96c-17.67 0-32-8.95-32-20s14.33-20 32-20z" fill="#fff"/><use xlink:href="#l" transform="matrix(1,0,0,1,381.0424824254076,425) translate(63.2766049382716 19.65277777777778)"/><path d="M504.04 620c17.68 0 32 8.95 32 20s-14.32 20-32 20h-96c-17.67 0-32-8.95-32-20s14.33-20 32-20z" fill="#fff"/><use xlink:href="#m" transform="matrix(1,0,0,1,381.04248242540746,625) translate(63.2766049382716 19.65277777777778)"/><path d="M744.04 520c17.68 0 32 8.95 32 20s-14.32 20-32 20h-96c-17.67 0-32-8.95-32-20s14.33-20 32-20z" fill="#fff"/><use xlink:href="#n" transform="matrix(1,0,0,1,621.0424824254076,525) translate(63.2766049382716 19.65277777777778)"/><path d="M779.74 601h-42.2v-2h42.2zm123.63 0h-73.75v-2h73.75z" stroke="#00c2a8" stroke-width=".05" fill="#00c2a8"/><path d="M737.57 601h-1.1l.07-1-.03-1h1.07z" fill="#00c2a8"/><path d="M737.6 601.02h-1.15l.07-1-.04-1.04h1.12zm-1.07-2l.04 1-.06.96h1.05V599z" stroke="#00c2a8" stroke-width=".05" fill="#00c2a8"/><path d="M918.64 600l-14.27 4.64v-9.28z" fill="#00c2a8"/><path d="M921.87 600l-18.5 6v-12zm-16.5 3.26L915.4 600l-10.03-3.26z" stroke="#00c2a8" stroke-width=".05" fill="#00c2a8"/><use xlink:href="#o" transform="matrix(1,0,0,1,779.7430509832105,589.3333333333335) translate(0 14.222222222222223)"/><defs><path fill="#3a414a" d="M135-143c-3-34-86-38-87 0 15 53 115 12 119 90S17 21 10-45l28-5c4 36 97 45 98 0-10-56-113-15-118-90-4-57 82-63 122-42 12 7 21 19 24 35" id="p"/><path fill="#3a414a" d="M24-231v-30h32v30H24zM24 0v-190h32V0H24" id="q"/><path fill="#3a414a" d="M117-194c89-4 53 116 60 194h-32v-121c0-31-8-49-39-48C34-167 62-67 57 0H25l-1-190h30c1 10-1 24 2 32 11-22 29-35 61-36" id="r"/><g id="a"><use transform="matrix(0.06172839506172839,0,0,0.06172839506172839,0,0)" xlink:href="#p"/><use transform="matrix(0.06172839506172839,0,0,0.06172839506172839,11.11111111111111,0)" xlink:href="#q"/><use transform="matrix(0.06172839506172839,0,0,0.06172839506172839,15.987654320987653,0)" xlink:href="#r"/></g><path fill="#3a414a" d="M118-107v75H92v-75H18v-26h74v-75h26v75h74v26h-74" id="s"/><use transform="matrix(0.06172839506172839,0,0,0.06172839506172839,0,0)" xlink:href="#s" id="b"/><path fill="#333" d="M123 10C108 53 80 86 19 72V37c35 8 53-11 59-39L3-190h52l48 148c12-52 28-100 44-148h51" id="t"/><use transform="matrix(0.04938271604938272,0,0,0.04938271604938272,0,0)" xlink:href="#t" id="c"/><path fill="#333" d="M144 0l-44-69L55 0H2l70-98-66-92h53l41 62 40-62h54l-67 91 71 99h-54" id="u"/><use transform="matrix(0.04938271604938272,0,0,0.04938271604938272,0,0)" xlink:href="#u" id="d"/><path fill="#333" d="M128 0H69L1-190h53L99-40l48-150h52" id="v"/><path fill="#333" d="M23 0v-37h61v-169l-59 37v-38l62-41h46v211h57V0H23" id="w"/><path fill="#333" d="M86-200l42-18 12 35-44 11 32 37-32 21-26-44-26 44-32-21 33-37-44-11 12-35 42 18-3-48h38" id="x"/><path fill="#333" d="M182-182c0 78-84 86-111 141h115V0H12c-6-101 99-100 120-180 1-22-12-31-33-32-23 0-32 14-35 34l-49-3c5-45 32-70 84-70 51 0 83 22 83 69" id="y"/><g id="e"><use transform="matrix(0.04938271604938272,0,0,0.04938271604938272,0,0)" xlink:href="#v"/><use transform="matrix(0.04938271604938272,0,0,0.04938271604938272,9.876543209876544,0)" xlink:href="#w"/><use transform="matrix(0.04938271604938272,0,0,0.04938271604938272,19.75308641975309,0)" xlink:href="#x"/><use transform="matrix(0.04938271604938272,0,0,0.04938271604938272,26.666666666666668,0)" xlink:href="#v"/><use transform="matrix(0.04938271604938272,0,0,0.04938271604938272,36.543209876543216,0)" xlink:href="#y"/></g><path fill="#333" d="M137-138c1-29-70-34-71-4 15 46 118 7 119 86 1 83-164 76-172 9l43-7c4 19 20 25 44 25 33 8 57-30 24-41C81-84 22-81 20-136c-2-80 154-74 161-7" id="z"/><path fill="#333" d="M25-224v-37h50v37H25zM25 0v-190h50V0H25" id="A"/><path fill="#333" d="M135-194c87-1 58 113 63 194h-50c-7-57 23-157-34-157-59 0-34 97-39 157H25l-1-190h47c2 12-1 28 3 38 12-26 28-41 61-42" id="B"/><path fill="#333" d="M67-93c0 74 22 123 53 168H70C40 30 18-18 18-93s22-123 52-168h50c-32 44-53 94-53 168" id="C"/><path fill="#333" d="M102-93c0 74-22 123-52 168H0C30 29 54-18 53-93c0-74-22-123-53-168h50c30 45 52 94 52 168" id="D"/><g id="f"><use transform="matrix(0.04938271604938272,0,0,0.04938271604938272,0,0)" xlink:href="#z"/><use transform="matrix(0.04938271604938272,0,0,0.04938271604938272,9.876543209876544,0)" xlink:href="#A"/><use transform="matrix(0.04938271604938272,0,0,0.04938271604938272,14.814814814814817,0)" xlink:href="#B"/><use transform="matrix(0.04938271604938272,0,0,0.04938271604938272,25.629629629629633,0)" xlink:href="#C"/><use transform="matrix(0.04938271604938272,0,0,0.04938271604938272,31.506172839506174,0)" xlink:href="#v"/><use transform="matrix(0.04938271604938272,0,0,0.04938271604938272,41.38271604938272,0)" xlink:href="#y"/><use transform="matrix(0.04938271604938272,0,0,0.04938271604938272,51.25925925925927,0)" xlink:href="#D"/></g><path fill="#3a414a" d="M108 0H70L1-190h34L89-25l56-165h34" id="E"/><path fill="#3a414a" d="M141-36C126-15 110 5 73 4 37 3 15-17 15-53c-1-64 63-63 125-63 3-35-9-54-41-54-24 1-41 7-42 31l-33-3c5-37 33-52 76-52 45 0 72 20 72 64v82c-1 20 7 32 28 27v20c-31 9-61-2-59-35zM48-53c0 20 12 33 32 33 41-3 63-29 60-74-43 2-92-5-92 41" id="F"/><path fill="#3a414a" d="M114-163C36-179 61-72 57 0H25l-1-190h30c1 12-1 29 2 39 6-27 23-49 58-41v29" id="G"/><path fill="#3a414a" d="M115-194c53 0 69 39 70 98 0 66-23 100-70 100C84 3 66-7 56-30L54 0H23l1-261h32v101c10-23 28-34 59-34zm-8 174c40 0 45-34 45-75 0-40-5-75-45-74-42 0-51 32-51 76 0 43 10 73 51 73" id="H"/><path fill="#3a414a" d="M24 0v-261h32V0H24" id="I"/><path fill="#3a414a" d="M100-194c63 0 86 42 84 106H49c0 40 14 67 53 68 26 1 43-12 49-29l28 8c-11 28-37 45-77 45C44 4 14-33 15-96c1-61 26-98 85-98zm52 81c6-60-76-77-97-28-3 7-6 17-6 28h103" id="J"/><g id="g"><use transform="matrix(0.05244455106554343,0,0,0.05244455106554343,0,0)" xlink:href="#E"/><use transform="matrix(0.05244455106554343,0,0,0.05244455106554343,9.440019191797818,0)" xlink:href="#F"/><use transform="matrix(0.05244455106554343,0,0,0.05244455106554343,19.928929404906505,0)" xlink:href="#G"/><use transform="matrix(0.05244455106554343,0,0,0.05244455106554343,26.169830981706173,0)" xlink:href="#q"/><use transform="matrix(0.05244455106554343,0,0,0.05244455106554343,30.312950515884104,0)" xlink:href="#H"/><use transform="matrix(0.05244455106554343,0,0,0.05244455106554343,40.80186072899279,0)" xlink:href="#F"/><use transform="matrix(0.05244455106554343,0,0,0.05244455106554343,51.29077094210148,0)" xlink:href="#I"/><use transform="matrix(0.05244455106554343,0,0,0.05244455106554343,55.433890476279416,0)" xlink:href="#J"/></g><path fill="#3a414a" d="M101-251c82-7 93 87 43 132L82-64C71-53 59-42 53-27h129V0H18c2-99 128-94 128-182 0-28-16-43-45-43s-46 15-49 41l-32-3c6-41 34-60 81-64" id="K"/><g id="h"><use transform="matrix(0.06172839506172839,0,0,0.06172839506172839,0,0)" xlink:href="#E"/><use transform="matrix(0.06172839506172839,0,0,0.06172839506172839,11.11111111111111,0)" xlink:href="#K"/></g><g id="i"><use transform="matrix(0.05244455106554343,0,0,0.05244455106554343,0,0)" xlink:href="#E"/><use transform="matrix(0.05244455106554343,0,0,0.05244455106554343,9.440019191797818,0)" xlink:href="#F"/><use transform="matrix(0.05244455106554343,0,0,0.05244455106554343,19.928929404906505,0)" xlink:href="#G"/><use transform="matrix(0.05244455106554343,0,0,0.05244455106554343,26.169830981706173,0)" xlink:href="#q"/><use transform="matrix(0.05244455106554343,0,0,0.05244455106554343,30.312950515884104,0)" xlink:href="#F"/><use transform="matrix(0.05244455106554343,0,0,0.05244455106554343,40.80186072899279,0)" xlink:href="#H"/><use transform="matrix(0.05244455106554343,0,0,0.05244455106554343,51.29077094210148,0)" xlink:href="#I"/><use transform="matrix(0.05244455106554343,0,0,0.05244455106554343,55.433890476279416,0)" xlink:href="#J"/></g><path fill="#3a414a" d="M27 0v-27h64v-190l-56 39v-29l58-41h29v221h61V0H27" id="L"/><g id="j"><use transform="matrix(0.06172839506172839,0,0,0.06172839506172839,0,0)" xlink:href="#E"/><use transform="matrix(0.06172839506172839,0,0,0.06172839506172839,11.11111111111111,0)" xlink:href="#L"/></g><path fill="#3a414a" d="M80-196l47-18 7 23-49 13 32 44-20 13-27-46-27 45-21-12 33-44-49-13 8-23 47 19-2-53h23" id="M"/><use transform="matrix(0.06172839506172839,0,0,0.06172839506172839,0,0)" xlink:href="#M" id="k"/><path fill="#3a414a" d="M126-127c33 6 58 20 58 59 0 88-139 92-164 29-3-8-5-16-6-25l32-3c6 27 21 44 54 44 32 0 52-15 52-46 0-38-36-46-79-43v-28c39 1 72-4 72-42 0-27-17-43-46-43-28 0-47 15-49 41l-32-3c6-42 35-63 81-64 48-1 79 21 79 65 0 36-21 52-52 59" id="N"/><g id="l"><use transform="matrix(0.06172839506172839,0,0,0.06172839506172839,0,0)" xlink:href="#E"/><use transform="matrix(0.06172839506172839,0,0,0.06172839506172839,11.11111111111111,0)" xlink:href="#N"/></g><path fill="#3a414a" d="M155-56V0h-30v-56H8v-25l114-167h33v167h35v25h-35zm-30-156c-27 46-58 90-88 131h88v-131" id="O"/><g id="m"><use transform="matrix(0.06172839506172839,0,0,0.06172839506172839,0,0)" xlink:href="#E"/><use transform="matrix(0.06172839506172839,0,0,0.06172839506172839,11.11111111111111,0)" xlink:href="#O"/></g><path fill="#3a414a" d="M54-142c48-35 137-8 131 61C196 18 31 33 14-55l32-4c7 23 22 37 52 37 35-1 51-22 54-58 4-55-73-65-99-34H22l8-134h141v27H59" id="P"/><g id="n"><use transform="matrix(0.06172839506172839,0,0,0.06172839506172839,0,0)" xlink:href="#E"/><use transform="matrix(0.06172839506172839,0,0,0.06172839506172839,11.11111111111111,0)" xlink:href="#P"/></g><path fill="#333" d="M128-127c34 4 56 21 59 58 7 91-148 94-172 28-4-9-6-17-7-26l51-5c1 24 16 35 40 36 23 0 39-12 38-36-1-31-31-36-65-34v-40c32 2 59-3 59-33 0-20-13-33-34-33s-33 13-35 32l-50-3c6-44 37-68 86-68 50 0 83 20 83 66 0 35-22 52-53 58" id="Q"/><path fill="#333" d="M125-100v72H85v-72H15v-39h70v-72h40v72h71v39h-71" id="R"/><path fill="#333" d="M165-50V0h-47v-50H5v-38l105-160h55v161h33v37h-33zm-47-37l2-116L46-87h72" id="S"/><g id="o"><use transform="matrix(0.04938271604938272,0,0,0.04938271604938272,0,0)" xlink:href="#v"/><use transform="matrix(0.04938271604938272,0,0,0.04938271604938272,9.876543209876544,0)" xlink:href="#Q"/><use transform="matrix(0.04938271604938272,0,0,0.04938271604938272,19.75308641975309,0)" xlink:href="#R"/><use transform="matrix(0.04938271604938272,0,0,0.04938271604938272,30.123456790123466,0)" xlink:href="#v"/><use transform="matrix(0.04938271604938272,0,0,0.04938271604938272,40.00000000000001,0)" xlink:href="#S"/></g></defs></g></svg>