<svg xmlns="http://www.w3.org/2000/svg" xmlns:xlink="http://www.w3.org/1999/xlink" xmlns:lucid="lucid" width="820.07" height="1066.5"><g transform="translate(15.037037037037038 100)" lucid:page-tab-id="PFSHoytj3GLj"><path d="M180-74a6 6 0 0 1 6-6h148a6 6 0 0 1 6 6v98.05a6 6 0 0 1-6 6H186a6 6 0 0 1-6-6z" stroke="#000" stroke-opacity="0" fill="#fff" fill-opacity="0"/><use xlink:href="#a" transform="matrix(1,0,0,1,185,-75) translate(3.704443943032473 56.95277289594656)"/><use xlink:href="#b" transform="matrix(1,0,0,1,185,-75) translate(25.320855091869404 56.95277289594656)"/><use xlink:href="#c" transform="matrix(1,0,0,1,185,-75) translate(49.25331029236744 56.95277289594656)"/><path d="M490-74a6 6 0 0 1 6-6h148a6 6 0 0 1 6 6v98.05a6 6 0 0 1-6 6H496a6 6 0 0 1-6-6z" stroke="#000" stroke-opacity="0" fill="#fff" fill-opacity="0"/><use xlink:href="#d" transform="matrix(1,0,0,1,495,-75) translate(3.704443943032473 56.95277289594656)"/><use xlink:href="#b" transform="matrix(1,0,0,1,495,-75) translate(25.320855091869404 56.95277289594656)"/><use xlink:href="#c" transform="matrix(1,0,0,1,495,-75) translate(49.25331029236744 56.95277289594656)"/><path d="M350 180c0 33.14-40.3 60-90 60s-90-26.86-90-60 40.3-60 90-60 90 26.86 90 60z" stroke="#3a414a" fill="#fff"/><use xlink:href="#e" transform="matrix(1,0,0,1,175,125) translate(20.586419753086417 59.02777777777778)"/><use xlink:href="#f" transform="matrix(1,0,0,1,175,125) translate(109.29012345679013 59.02777777777778)"/><use xlink:href="#g" transform="matrix(1,0,0,1,175,125) translate(128.42592592592592 59.02777777777778)"/><use xlink:href="#h" transform="matrix(1,0,0,1,175,125) translate(142.00617283950618 59.02777777777778)"/><path d="M660 180c0 33.14-40.3 60-90 60s-90-26.86-90-60 40.3-60 90-60 90 26.86 90 60z" stroke="#3a414a" fill="#fff"/><use xlink:href="#i" transform="matrix(1,0,0,1,485,125) translate(20.586419753086417 59.02777777777778)"/><use xlink:href="#f" transform="matrix(1,0,0,1,485,125) translate(109.29012345679013 59.02777777777778)"/><use xlink:href="#g" transform="matrix(1,0,0,1,485,125) translate(128.42592592592592 59.02777777777778)"/><use xlink:href="#h" transform="matrix(1,0,0,1,485,125) translate(142.00617283950618 59.02777777777778)"/><path d="M260 30.52v72.6" stroke="#3a414a" fill="none"/><path d="M260.5 30.53h-1v-.5h1z" stroke="#3a414a" stroke-width=".05" fill="#3a414a"/><path d="M260 117.88l-4.64-14.26h9.28z" stroke="#3a414a" fill="#3a414a"/><path d="M570 30.52v72.6" stroke="#3a414a" fill="none"/><path d="M570.5 30.53h-1v-.5h1z" stroke="#3a414a" stroke-width=".05" fill="#3a414a"/><path d="M570 117.88l-4.64-14.26h9.28z" stroke="#3a414a" fill="#3a414a"/><path d="M180 435.95a6 6 0 0 1 6-6h28a6 6 0 0 1 6 6v48a6 6 0 0 1-6 6h-28a6 6 0 0 1-6-6z" stroke="#000" stroke-opacity="0" fill="#fff" fill-opacity="0"/><use xlink:href="#j" transform="matrix(1,0,0,1,185,434.9468969682405) translate(8.051867845016702 31.60902289594656)"/><path d="M240 435.95a6 6 0 0 1 6-6h28a6 6 0 0 1 6 6v48a6 6 0 0 1-6 6h-28a6 6 0 0 1-6-6z" stroke="#000" stroke-opacity="0" fill="#fff" fill-opacity="0"/><use xlink:href="#k" transform="matrix(1,0,0,1,245,434.9468969682405) translate(9.379274186213118 29.375271919580314)"/><path d="M300 435.95a6 6 0 0 1 6-6h28a6 6 0 0 1 6 6v48a6 6 0 0 1-6 6h-28a6 6 0 0 1-6-6z" stroke="#000" stroke-opacity="0" fill="#fff" fill-opacity="0"/><use xlink:href="#l" transform="matrix(1,0,0,1,305,434.9468969682405) translate(8.051867845016702 31.60902289594656)"/><path d="M400 435.95a6 6 0 0 1 6-6h28a6 6 0 0 1 6 6v48a6 6 0 0 1-6 6h-28a6 6 0 0 1-6-6z" stroke="#000" stroke-opacity="0" fill="#fff" fill-opacity="0"/><use xlink:href="#m" transform="matrix(1,0,0,1,405,434.9468969682405) translate(8.518518518518519 30.27777777777778)"/><path d="M440 435.95a6 6 0 0 1 6-6h68a6 6 0 0 1 6 6v48a6 6 0 0 1-6 6h-68a6 6 0 0 1-6-6z" stroke="#000" stroke-opacity="0" fill="#fff" fill-opacity="0"/><use xlink:href="#n" transform="matrix(1,0,0,1,445,434.9468969682405) translate(12.68877563566474 31.60902289594656)"/><path d="M350 620c0 33.14-40.3 60-90 60s-90-26.86-90-60 40.3-60 90-60 90 26.86 90 60z" stroke="#3a414a" fill="#fff"/><use xlink:href="#o" transform="matrix(1,0,0,1,175,565) translate(14.969135802469125 59.02777777777778)"/><use xlink:href="#f" transform="matrix(1,0,0,1,175,565) translate(77.87037037037035 59.02777777777778)"/><use xlink:href="#g" transform="matrix(1,0,0,1,175,565) translate(97.00617283950616 59.02777777777778)"/><use xlink:href="#p" transform="matrix(1,0,0,1,175,565) translate(110.58641975308642 59.02777777777778)"/><use xlink:href="#h" transform="matrix(1,0,0,1,175,565) translate(147.62345679012344 59.02777777777778)"/><path d="M260 490.4v52.72" stroke="#3a414a" stroke-linejoin="round" fill="none"/><path d="M260.5 490.42h-1v-.5h1z" stroke="#3a414a" stroke-width=".05" fill="#3a414a"/><path d="M260 557.88l-4.64-14.26h9.28z" stroke="#3a414a" fill="#3a414a"/><path d="M260 241v2m0 4.02v4m0 4.02v4m0 4.02v4m0 4.02v4m0 4.02v4.02m0 4v4.02m0 4v4.02m0 4v4.02m0 4v4.02m0 4v4.02m0 4.02v2l-.07.94-.22.92-.08.2m-2.7 3.16l-.2.13-.87.35-.9.22h-2.05m-4.08 0h-4.08m-4.08.02h-4.07m-4.1 0h-4.07m-4.08 0l-4.08.02m-4.07 0h-4.08m-4.08.02H206l-.94.08-.9.22-.23.1m-3.15 2.68l-.13.2-.36.87-.23.9v2.04m0 4.07v4.08m0 4.07v4.08m-.02 4.07v4.07m0 4.07v4.07m-.02 4.1v4.06m0 4.07v4.07m0 4.07l-.02 4.08m0 4.07v4.07m0 4.06v2.04" stroke="#3a414a" fill="none"/><path d="M260 240.5h.5v.5h-1v-.5z" stroke="#3a414a" stroke-width=".05" fill="#3a414a"/><path d="M200 428.36l-4.64-14.26h9.28z" stroke="#3a414a" fill="#3a414a"/><path d="M200 490.4v1.8m0 3.56v3.57m0 3.57v3.57m0 3.57v3.56m0 3.57v1.8l-.07.92-.22.9-.08.23m-2.7 3.15l-.2.12-.87.36-.9.22h-2.13m-4.25 0h-4.25m-4.24.02h-4.25m-4.24 0l-4.26.02m-4.24 0h-4.25m-4.24 0l-4.24.02m-4.25 0h-4.23m-4.25 0l-2.12.02-.94.07-.9.22-.23.1m-3.15 2.68l-.13.2-.36.87-.23.92v2.1m0 4.2v4.2m0 4.2v4.2m-.02 4.2v4.2m0 4.2v4.2m0 4.2v4.2m-.02 4.2v4.2m0 4.2v4.18m0 4.2l-.02 4.2m0 4.2v4.2m0 4.2v2.1l.07.94.22.9.08.23m2.7 3.15l.2.13.87.36.9.23h2.33m4.64.02l4.64.02m4.64.02h2.32" stroke="#3a414a" fill="none"/><path d="M200.5 490.42h-1v-.5h1z" stroke="#3a414a" stroke-width=".05" fill="#3a414a"/><path d="M167.88 620l-14.26 4.64v-9.28z" stroke="#3a414a" fill="#3a414a"/><path d="M570 241v2m0 4.02v4m0 4.02v4m0 4.02v4m0 4.02v4m0 4.02v4.02m0 4v4.02m0 4v4.02m0 4v4.02m0 4v4.02m0 4v4.02m0 4.02v2l-.07.94-.22.92-.08.2m-2.7 3.16l-.2.13-.87.35-.9.22h-2m-3.98 0h-4m-3.97 0h-3.98m-3.98 0h-4m-3.97 0h-3.98m-4 0h-3.98m-3.98 0h-3.98m-3.98 0l-3.98.02m-4 0h-3.97m-3.98 0h-3.98m-4 0h-3.97m-3.98 0h-3.98m-4 0h-3.97m-3.98 0h-4m-3.97 0h-4m-3.97 0h-3.98m-3.98 0h-4m-3.97 0h-3.98m-3.98 0h-4m-3.97 0h-3.98m-3.98.02h-3.98m-4 0h-3.97m-4 0h-3.97m-4 0h-3.97m-3.98 0h-3.98m-4 0h-3.97m-3.98 0h-3.98m-3.98 0h-4m-3.98.02h-3.98m-3.98 0h-4m-3.97 0h-2l-.94.08-.9.22-.23.1m-3.15 2.68l-.13.2-.36.87-.23.9v2.04m0 4.07v4.08m0 4.07v4.08m-.02 4.07v4.07m0 4.07v4.07m-.02 4.1v4.06m0 4.07v4.07m0 4.07l-.02 4.08m0 4.07v4.07m0 4.06v2.04" stroke="#3a414a" fill="none"/><path d="M570 240.5h.5v.5h-1v-.5z" stroke="#3a414a" stroke-width=".05" fill="#3a414a"/><path d="M320 428.36l-4.64-14.26h9.28z" stroke="#3a414a" fill="#3a414a"/><path d="M320 490.4v1.8m0 3.56v3.57m0 3.57v3.57m0 3.57v3.56m0 3.57v1.8l.07.92.22.9.08.23m2.7 3.15l.2.12.87.36.9.22h2.13m4.25 0h4.25m4.24.02h4.25m4.24 0l4.26.02m4.24 0h4.25m4.24 0l4.24.02m4.25 0h4.23m4.25 0l2.12.02.94.07.9.22.23.1m3.15 2.68l.13.2.36.87.23.92v2.1m0 4.2v4.2m0 4.2v4.2m.02 4.2v4.2m0 4.2v4.2m0 4.2v4.2m.02 4.2v4.2m0 4.2v4.18m0 4.2l.02 4.2m0 4.2v4.2m0 4.2v2.1l-.07.94-.22.9-.08.23m-2.7 3.15l-.2.13-.87.36-.9.23h-2.33m-4.64.02l-4.64.02m-4.64.02h-2.32" stroke="#3a414a" fill="none"/><path d="M320.5 490.42h-1v-.5h1z" stroke="#3a414a" stroke-width=".05" fill="#3a414a"/><path d="M352.12 620l14.26-4.64v9.28z" stroke="#3a414a" fill="#3a414a"/><path d="M660 619.9c0 33.13-40.3 60-90 60s-90-26.87-90-60c0-33.14 40.3-60 90-60s90 26.86 90 60z" stroke="#3a414a" fill="#fff"/><use xlink:href="#o" transform="matrix(1,0,0,1,485,564.893793936481) translate(3.3333333333333286 59.02777777777778)"/><use xlink:href="#f" transform="matrix(1,0,0,1,485,564.893793936481) translate(66.23456790123456 59.02777777777778)"/><use xlink:href="#g" transform="matrix(1,0,0,1,485,564.893793936481) translate(85.37037037037037 59.02777777777778)"/><use xlink:href="#q" transform="matrix(1,0,0,1,485,564.893793936481) translate(98.95061728395062 59.02777777777778)"/><use xlink:href="#h" transform="matrix(1,0,0,1,485,564.893793936481) translate(159.25925925925924 59.02777777777778)"/><path d="M480 490.4v28.25a6 6 0 0 0 6 6h78a6 6 0 0 1 6 6V543" stroke="#3a414a" fill="none"/><path d="M480.5 490.42h-1v-.5h1z" stroke="#3a414a" stroke-width=".05" fill="#3a414a"/><path d="M570 557.78l-4.64-14.27h9.28z" stroke="#3a414a" fill="#3a414a"/><path d="M90.57 715.38l.2.82.33.8.45.73.56.66.67.55.73.45.8.33.84.2.88.07 158.86-.07.82-.2.8-.33.73-.45.66-.56.55-.67.45-.73.33-.8.2-.84.07-.88V681h1v33.52l-.08 1-.24 1-.4.93-.52.87-.66.78-.78.66-.87.53-.94.38-1 .25-159.02.07-1-.08-1-.24-.93-.4-.87-.52-.78-.66-.66-.78-.53-.87-.38-.94-.25-1-.04-279.5h1zm62.55-534.88l-58 .07-.82.2-.8.33-.73.45-.66.56-.55.67-.45.73-.33.8-.2.84-.07.88.03 228.65h-1l-.03-228.7.08-1 .24-.98.4-.95.52-.87.66-.78.78-.66.87-.53.94-.38 1-.25 58.12-.07z" stroke="#3a414a" stroke-width=".05" fill="#3a414a"/><path d="M260 680.5h.5v.5h-1v-.5z" fill="#3a414a"/><path d="M260 680.48h.52v.56h-1.04v-.58zm-.48.5h.96v-.46h-.96z" stroke="#3a414a" stroke-width=".05" fill="#3a414a"/><path d="M167.88 180l-14.26 4.64v-9.28z" fill="#3a414a"/><path d="M169.5 180l-16.38 5.32v-10.64zm-15.38 3.95l12.14-3.95-12.14-3.95z" stroke="#3a414a" stroke-width=".05" fill="#3a414a"/><use xlink:href="#r" transform="matrix(1,0,0,1,56.02469135802468,414.6666666666668) translate(0 14.222222222222223)"/><path d="M700.93 614.9l-.25 1-.4.95-.52.87-.66.77-.78.65-.87.54-.94.38-.98.24-1 .07H661v-1h33.48l.88-.08.84-.2.8-.33.73-.46.66-.56.55-.65.45-.74.33-.8.2-.83.03-204.16h1zm-5.43-435.33l1 .25.95.4.87.52.78.66.66.78.53.87.38.94.24.98.08 1-.04 203.3h-1l.04-203.26-.07-.88-.2-.84-.33-.8-.45-.73-.56-.66-.67-.55-.73-.45-.8-.33-.82-.2-18.5-.07v-1z" stroke="#3a414a" stroke-width=".05" fill="#3a414a"/><path d="M661 620.4h-.5v-1h.5z" fill="#3a414a"/><path d="M661.04 620.42h-.58l.02-.52v-.53h.56zm-.52-1v.95h.47v-.95z" stroke="#3a414a" stroke-width=".05" fill="#3a414a"/><path d="M676.38 184.64L662.12 180l14.26-4.64z" fill="#3a414a"/><path d="M676.88 185.32L660.5 180l16.38-5.32zM663.74 180l12.14 3.95v-7.9z" stroke="#3a414a" stroke-width=".05" fill="#3a414a"/><use xlink:href="#s" transform="matrix(1,0,0,1,671.4629774509873,389.28023030157004) translate(0 14.222222222222223)"/><path d="M520 860c0 33.14-40.3 60-90 60s-90-26.86-90-60 40.3-60 90-60 90 26.86 90 60z" stroke="#3a414a" fill="#fff"/><use xlink:href="#o" transform="matrix(1,0,0,1,345,805) translate(12.196358024691358 45.27777777777778)"/><use xlink:href="#f" transform="matrix(1,0,0,1,345,805) translate(75.09759259259259 45.27777777777778)"/><use xlink:href="#g" transform="matrix(1,0,0,1,345,805) translate(94.23339506172839 45.27777777777778)"/><use xlink:href="#p" transform="matrix(1,0,0,1,345,805) translate(107.81364197530864 45.27777777777778)"/><use xlink:href="#t" transform="matrix(1,0,0,1,345,805) translate(144.85067901234567 45.27777777777778)"/><use xlink:href="#q" transform="matrix(1,0,0,1,345,805) translate(51.14697530864197 71.94444444444446)"/><use xlink:href="#h" transform="matrix(1,0,0,1,345,805) translate(111.45561728395063 71.94444444444446)"/><path d="M260 681v1.97m0 3.93v3.93m0 3.93v3.93m0 3.93v3.93m0 3.93v3.92m0 3.93v3.93m0 3.94v3.93m0 3.93V738m0 3.94v3.94m0 3.93v3.94m0 3.93v3.93m0 3.93v3.94m0 3.93v3.93m0 3.93v3.93m0 3.93v3.93m0 3.93v3.92m0 3.93v3.93m0 3.94v3.93m0 3.93v3.93m0 3.94v3.94m0 3.93v3.94m0 3.93v3.93m0 3.93V854l.07.94.22.9.08.23m2.7 3.15l.2.13.87.36.9.23h2.08m4.15 0h4.15m4.15 0l4.14.02m4.15 0h4.15m4.14.02h4.15m4.16 0h4.14m4.15.02h4.15m4.14 0h2.08" stroke="#3a414a" fill="none"/><path d="M260 680.5h.5v.5h-1v-.5z" stroke="#3a414a" stroke-width=".05" fill="#3a414a"/><path d="M337.88 860l-14.26 4.64v-9.28z" stroke="#3a414a" fill="#3a414a"/><path d="M570 680.9v1.96m0 3.94v3.93m0 3.93v3.94m0 3.93v3.94m0 3.93v3.93m0 3.94v3.93m0 3.94v3.93m0 3.94v3.94m0 3.93v3.94m0 3.94v3.94m0 3.93v3.95m0 3.93v3.93m0 3.95v3.93m0 3.94v3.93m0 3.94V793m0 3.93v3.94m0 3.92v3.94m0 3.93v3.92m0 3.94v3.93m0 3.93v3.93m0 3.94v3.93m0 3.93v3.94m0 3.93V854l-.07.94-.22.9-.08.23m-2.7 3.15l-.2.13-.87.36-.9.23h-1.76m-3.52 0l-3.5.02m-3.52 0l-3.5.02m-3.5 0l-3.52.02m-3.5 0h-1.76" stroke="#3a414a" fill="none"/><path d="M570 680.4h.5v.5h-1v-.52z" stroke="#3a414a" stroke-width=".05" fill="#3a414a"/><path d="M522.12 860l14.26-4.64v9.28z" stroke="#3a414a" fill="#3a414a"/><path d="M770.43 955.5l-.25 1-.4.95-.52.87-.66.78-.78.66-.87.53-.94.38-.98.24-1 .08-329.02-.07-1-.25-.95-.4-.87-.52-.78-.66-.66-.78-.53-.87-.38-.94-.24-.98-.08-1V921h1v33.48l.07.88.2.84.33.8.45.73.56.66.67.55.73.45.8.33.82.2 328.86.07.88-.07.84-.2.8-.33.73-.45.66-.56.55-.67.45-.73.33-.8.2-.82.04-451.38h1zM765 179.57l1 .25.95.4.87.52.78.66.66.78.53.87.38.94.24.98.08 1-.03 296.7h-1L769.5 186l-.07-.88-.2-.84-.33-.8-.45-.73-.56-.66-.67-.55-.73-.45-.8-.33-.82-.2-88-.07v-1z" stroke="#3a414a" stroke-width=".05" fill="#3a414a"/><path d="M430 920.5h.5v.5h-1v-.5z" fill="#3a414a"/><path d="M430 920.48h.52v.56h-1.04v-.58zm-.48.5h.96v-.46h-.96z" stroke="#3a414a" stroke-width=".05" fill="#3a414a"/><path d="M676.38 184.64L662.12 180l14.26-4.64z" fill="#3a414a"/><path d="M676.88 185.32L660.5 180l16.38-5.32zM663.74 180l12.14 3.95v-7.9z" stroke="#3a414a" stroke-width=".05" fill="#3a414a"/><g><use xlink:href="#s" transform="matrix(1,0,0,1,740.9629629629629,482.6666666666669) translate(0 14.222222222222223)"/></g><path d="M20.57 955.38l.2.82.33.8.45.73.56.66.67.55.73.45.8.33.84.2.88.07 398.86-.07.82-.2.8-.33.73-.45.66-.56.55-.67.45-.73.33-.8.2-.84.07-.88V921h1v33.52l-.08 1-.24 1-.4.93-.52.87-.66.78-.78.66-.87.53-.94.38-1 .25-399.02.07-1-.08-1-.24-.93-.4-.87-.52-.78-.66-.66-.78-.53-.87-.38-.94-.25-1-.04-448.83h1zM153.12 180.5l-128 .07-.82.2-.8.33-.73.45-.66.56-.55.67-.45.73-.33.8-.2.84-.07.88.03 299.3h-1L19.5 186l.08-1 .24-1 .4-.93.52-.87.66-.78.78-.66.87-.53.94-.38 1-.25 128.12-.07z" stroke="#3a414a" stroke-width=".05" fill="#3a414a"/><path d="M430 920.5h.5v.5h-1v-.5z" fill="#3a414a"/><path d="M430 920.48h.52v.56h-1.04v-.58zm-.48.5h.96v-.46h-.96z" stroke="#3a414a" stroke-width=".05" fill="#3a414a"/><path d="M167.88 180l-14.26 4.64v-9.28z" fill="#3a414a"/><path d="M169.5 180l-16.38 5.32v-10.64zm-15.38 3.95l12.14-3.95-12.14-3.95z" stroke="#3a414a" stroke-width=".05" fill="#3a414a"/><g><use xlink:href="#s" transform="matrix(1,0,0,1,-9.037037037037038,485.33333333333366) translate(0 14.222222222222223)"/></g><path d="M570 241v2m0 4.02v4m0 4.02v4m0 4.02v4m0 4.02v4m0 4.02v4.02m0 4v4.02m0 4v4.02m0 4v4.02m0 4v4.02m0 4v4.02m0 4.02v2l-.07.94-.22.92-.08.2m-2.7 3.16l-.2.13-.87.35-.9.22h-1.96m-3.9 0l-3.9.02m-3.9 0h-3.88m-3.9 0l-3.9.02m-3.9 0h-3.88m-3.9.02H526l-.94.08-.9.22-.23.1m-3.15 2.68l-.13.2-.36.87-.23.9v2.04m0 4.07v4.08m0 4.07v4.08m-.02 4.07v4.07m0 4.07v4.07m-.02 4.1v4.06m0 4.07v4.07m0 4.07l-.02 4.08m0 4.07v4.07m0 4.06v2.04" stroke="#3a414a" fill="none"/><path d="M570 240.5h.5v.5h-1v-.5z" stroke="#3a414a" stroke-width=".05" fill="#3a414a"/><path d="M520 428.36l-4.64-14.26h9.28z" stroke="#3a414a" fill="#3a414a"/><path d="M500 435.95a6 6 0 0 1 6-6h28a6 6 0 0 1 6 6v48a6 6 0 0 1-6 6h-28a6 6 0 0 1-6-6z" stroke="#000" stroke-opacity="0" fill="#fff" fill-opacity="0"/><g><use xlink:href="#l" transform="matrix(1,0,0,1,505,434.9468969682405) translate(8.051867845016702 31.60902289594656)"/></g><path d="M520 435.95a6 6 0 0 1 6-6h28a6 6 0 0 1 6 6v48a6 6 0 0 1-6 6h-28a6 6 0 0 1-6-6z" stroke="#000" stroke-opacity="0" fill="#fff" fill-opacity="0"/><g><use xlink:href="#u" transform="matrix(1,0,0,1,525,434.9468969682405) translate(10.406512630872152 31.60902289594656)"/></g><path d="M520 490.4v1.82m0 3.63v3.62m0 3.63v1.8l.07.95.22.92.08.2m2.7 3.16l.2.13.87.36.9.22H527m3.9 0h3.88m3.9 0h3.87m3.9 0h3.88m3.88.02h3.9m3.9 0h3.87m3.9 0h3.88m3.88 0l3.9.02m3.88 0h3.9m3.88 0h3.9m3.87 0h3.9m3.88 0l3.88.02m3.9 0h3.9m3.87 0h3.9m3.88 0h1.94l.93.08.92.22.2.1m3.16 2.7l.14.2.36.86.22.9v2.06m0 4.1v4.1m.02 4.08v4.1m0 4.08l.02 4.1m0 4.1v4.08m.02 4.1v4.1m0 4.08v2.05" stroke="#3a414a" fill="none"/><path d="M520.5 490.42h-1v-.5h1z" stroke="#3a414a" stroke-width=".05" fill="#3a414a"/><path d="M639.9 579.86l-4.64-14.27h9.27z" stroke="#3a414a" fill="#3a414a"/><path d="M420 490.4v293.1" stroke="#3a414a" fill="none"/><path d="M420.5 490.42h-1v-.5h1z" stroke="#3a414a" stroke-width=".05" fill="#3a414a"/><path d="M420 798.26L415.36 784h9.28z" stroke="#3a414a" fill="#3a414a"/><defs><path fill="#3a414a" d="M141 0L90-78 38 0H4l68-98-65-92h35l48 74 47-74h35l-64 92 68 98h-35" id="v"/><use transform="matrix(0.07720146838870333,0,0,0.07720146838870333,0,0)" xlink:href="#v" id="a"/><path fill="#3a414a" d="M18-150v-26h174v26H18zm0 90v-26h174v26H18" id="w"/><use transform="matrix(0.07720146838870333,0,0,0.07720146838870333,0,0)" xlink:href="#w" id="b"/><path fill="#3a414a" d="M108 0H70L1-190h34L89-25l56-165h34" id="x"/><path fill="#3a414a" d="M141-36C126-15 110 5 73 4 37 3 15-17 15-53c-1-64 63-63 125-63 3-35-9-54-41-54-24 1-41 7-42 31l-33-3c5-37 33-52 76-52 45 0 72 20 72 64v82c-1 20 7 32 28 27v20c-31 9-61-2-59-35zM48-53c0 20 12 33 32 33 41-3 63-29 60-74-43 2-92-5-92 41" id="y"/><path fill="#3a414a" d="M114-163C36-179 61-72 57 0H25l-1-190h30c1 12-1 29 2 39 6-27 23-49 58-41v29" id="z"/><path fill="#3a414a" d="M24-231v-30h32v30H24zM24 0v-190h32V0H24" id="A"/><path fill="#3a414a" d="M115-194c53 0 69 39 70 98 0 66-23 100-70 100C84 3 66-7 56-30L54 0H23l1-261h32v101c10-23 28-34 59-34zm-8 174c40 0 45-34 45-75 0-40-5-75-45-74-42 0-51 32-51 76 0 43 10 73 51 73" id="B"/><path fill="#3a414a" d="M24 0v-261h32V0H24" id="C"/><path fill="#3a414a" d="M100-194c63 0 86 42 84 106H49c0 40 14 67 53 68 26 1 43-12 49-29l28 8c-11 28-37 45-77 45C44 4 14-33 15-96c1-61 26-98 85-98zm52 81c6-60-76-77-97-28-3 7-6 17-6 28h103" id="D"/><g id="c"><use transform="matrix(0.07720146838870333,0,0,0.07720146838870333,0,0)" xlink:href="#x"/><use transform="matrix(0.07720146838870333,0,0,0.07720146838870333,13.896264309966599,0)" xlink:href="#y"/><use transform="matrix(0.07720146838870333,0,0,0.07720146838870333,29.336557987707266,0)" xlink:href="#z"/><use transform="matrix(0.07720146838870333,0,0,0.07720146838870333,38.523532725962966,0)" xlink:href="#A"/><use transform="matrix(0.07720146838870333,0,0,0.07720146838870333,44.62244872867053,0)" xlink:href="#y"/><use transform="matrix(0.07720146838870333,0,0,0.07720146838870333,60.06274240641119,0)" xlink:href="#B"/><use transform="matrix(0.07720146838870333,0,0,0.07720146838870333,75.50303608415186,0)" xlink:href="#C"/><use transform="matrix(0.07720146838870333,0,0,0.07720146838870333,81.60195208685941,0)" xlink:href="#D"/></g><path fill="#3a414a" d="M179-190L93 31C79 59 56 82 12 73V49c39 6 53-20 64-50L1-190h34L92-34l54-156h33" id="E"/><use transform="matrix(0.07720146838870333,0,0,0.07720146838870333,0,0)" xlink:href="#E" id="d"/><path fill="#3a414a" d="M177-190C167-65 218 103 67 71c-23-6-38-20-44-43l32-5c15 47 100 32 89-28v-30C133-14 115 1 83 1 29 1 15-40 15-95c0-56 16-97 71-98 29-1 48 16 59 35 1-10 0-23 2-32h30zM94-22c36 0 50-32 50-73 0-42-14-75-50-75-39 0-46 34-46 75s6 73 46 73" id="F"/><path fill="#3a414a" d="M115-194c55 1 70 41 70 98S169 2 115 4C84 4 66-9 55-30l1 105H24l-1-265h31l2 30c10-21 28-34 59-34zm-8 174c40 0 45-34 45-75s-6-73-45-74c-42 0-51 32-51 76 0 43 10 73 51 73" id="G"/><path fill="#3a414a" d="M106-169C34-169 62-67 57 0H25v-261h32l-1 103c12-21 28-36 61-36 89 0 53 116 60 194h-32v-121c2-32-8-49-39-48" id="H"/><path fill="#3a414a" d="M87 75C49 33 22-17 22-94c0-76 28-126 65-167h31c-38 41-64 92-64 168S80 34 118 75H87" id="I"/><path fill="#3a414a" d="M33-261c38 41 65 92 65 168S71 34 33 75H2C39 34 66-17 66-93S39-220 2-261h31" id="J"/><g id="e"><use transform="matrix(0.06172839506172839,0,0,0.06172839506172839,0,0)" xlink:href="#F"/><use transform="matrix(0.06172839506172839,0,0,0.06172839506172839,12.345679012345679,0)" xlink:href="#z"/><use transform="matrix(0.06172839506172839,0,0,0.06172839506172839,19.691358024691358,0)" xlink:href="#y"/><use transform="matrix(0.06172839506172839,0,0,0.06172839506172839,32.03703703703704,0)" xlink:href="#G"/><use transform="matrix(0.06172839506172839,0,0,0.06172839506172839,44.382716049382715,0)" xlink:href="#H"/><use transform="matrix(0.06172839506172839,0,0,0.06172839506172839,56.72839506172839,0)" xlink:href="#I"/><use transform="matrix(0.06172839506172839,0,0,0.06172839506172839,64.07407407407408,0)" xlink:href="#v"/><use transform="matrix(0.06172839506172839,0,0,0.06172839506172839,75.18518518518519,0)" xlink:href="#J"/></g><use transform="matrix(0.06172839506172839,0,0,0.06172839506172839,0,0)" xlink:href="#w" id="f"/><path fill="#3a414a" d="M39-94c74 12-11 154 75 146v23c-44 4-70-10-70-52C44-23 55-84 6-82v-22c81 4-7-162 84-157h24v23c-82-15-2 131-75 144" id="K"/><use transform="matrix(0.06172839506172839,0,0,0.06172839506172839,0,0)" xlink:href="#K" id="g"/><path fill="#3a414a" d="M76-40C78 24 84 88 6 75V52C86 64 9-79 80-94c-40-6-34-59-34-106 1-29-11-41-40-38v-23c44-4 70 10 70 52 0 47-12 108 38 105v22c-26 1-39 14-38 42" id="L"/><use transform="matrix(0.06172839506172839,0,0,0.06172839506172839,0,0)" xlink:href="#L" id="h"/><g id="i"><use transform="matrix(0.06172839506172839,0,0,0.06172839506172839,0,0)" xlink:href="#F"/><use transform="matrix(0.06172839506172839,0,0,0.06172839506172839,12.345679012345679,0)" xlink:href="#z"/><use transform="matrix(0.06172839506172839,0,0,0.06172839506172839,19.691358024691358,0)" xlink:href="#y"/><use transform="matrix(0.06172839506172839,0,0,0.06172839506172839,32.03703703703704,0)" xlink:href="#G"/><use transform="matrix(0.06172839506172839,0,0,0.06172839506172839,44.382716049382715,0)" xlink:href="#H"/><use transform="matrix(0.06172839506172839,0,0,0.06172839506172839,56.72839506172839,0)" xlink:href="#I"/><use transform="matrix(0.06172839506172839,0,0,0.06172839506172839,64.07407407407408,0)" xlink:href="#E"/><use transform="matrix(0.06172839506172839,0,0,0.06172839506172839,75.18518518518519,0)" xlink:href="#J"/></g><use transform="matrix(0.07720146838870333,0,0,0.07720146838870333,0,0)" xlink:href="#v" id="j"/><path fill="#3a414a" d="M80-196l47-18 7 23-49 13 32 44-20 13-27-46-27 45-21-12 33-44-49-13 8-23 47 19-2-53h23" id="M"/><use transform="matrix(0.08029608305409831,0,0,0.08029608305409831,0,0)" xlink:href="#M" id="k"/><use transform="matrix(0.07720146838870333,0,0,0.07720146838870333,0,0)" xlink:href="#E" id="l"/><path fill="#3a414a" d="M118-107v75H92v-75H18v-26h74v-75h26v75h74v26h-74" id="N"/><use transform="matrix(0.06172839506172839,0,0,0.06172839506172839,0,0)" xlink:href="#N" id="m"/><path fill="#3a414a" d="M135-143c-3-34-86-38-87 0 15 53 115 12 119 90S17 21 10-45l28-5c4 36 97 45 98 0-10-56-113-15-118-90-4-57 82-63 122-42 12 7 21 19 24 35" id="O"/><path fill="#3a414a" d="M117-194c89-4 53 116 60 194h-32v-121c0-31-8-49-39-48C34-167 62-67 57 0H25l-1-190h30c1 10-1 24 2 32 11-22 29-35 61-36" id="P"/><g id="n"><use transform="matrix(0.07720146838870333,0,0,0.07720146838870333,0,0)" xlink:href="#O"/><use transform="matrix(0.07720146838870333,0,0,0.07720146838870333,13.896264309966599,0)" xlink:href="#A"/><use transform="matrix(0.07720146838870333,0,0,0.07720146838870333,19.99518031267416,0)" xlink:href="#P"/><use transform="matrix(0.07720146838870333,0,0,0.07720146838870333,35.43547399041483,0)" xlink:href="#I"/></g><g id="o"><use transform="matrix(0.06172839506172839,0,0,0.06172839506172839,0,0)" xlink:href="#F"/><use transform="matrix(0.06172839506172839,0,0,0.06172839506172839,12.345679012345679,0)" xlink:href="#z"/><use transform="matrix(0.06172839506172839,0,0,0.06172839506172839,19.691358024691358,0)" xlink:href="#y"/><use transform="matrix(0.06172839506172839,0,0,0.06172839506172839,32.03703703703704,0)" xlink:href="#G"/><use transform="matrix(0.06172839506172839,0,0,0.06172839506172839,44.382716049382715,0)" xlink:href="#H"/></g><g id="p"><use transform="matrix(0.06172839506172839,0,0,0.06172839506172839,0,0)" xlink:href="#v"/><use transform="matrix(0.06172839506172839,0,0,0.06172839506172839,11.11111111111111,0)" xlink:href="#M"/><use transform="matrix(0.06172839506172839,0,0,0.06172839506172839,19.753086419753085,0)" xlink:href="#E"/></g><g id="q"><use transform="matrix(0.06172839506172839,0,0,0.06172839506172839,0,0)" xlink:href="#O"/><use transform="matrix(0.06172839506172839,0,0,0.06172839506172839,11.11111111111111,0)" xlink:href="#A"/><use transform="matrix(0.06172839506172839,0,0,0.06172839506172839,15.987654320987653,0)" xlink:href="#P"/><use transform="matrix(0.06172839506172839,0,0,0.06172839506172839,28.333333333333332,0)" xlink:href="#I"/><use transform="matrix(0.06172839506172839,0,0,0.06172839506172839,35.67901234567901,0)" xlink:href="#E"/><use transform="matrix(0.06172839506172839,0,0,0.06172839506172839,46.79012345679013,0)" xlink:href="#J"/></g><path fill="#333" d="M85 4C-2 5 27-109 22-190h50c7 57-23 150 33 157 60-5 35-97 40-157h50l1 190h-47c-2-12 1-28-3-38-12 25-28 42-61 42" id="Q"/><path fill="#333" d="M123 10C108 53 80 86 19 72V37c35 8 53-11 59-39L3-190h52l48 148c12-52 28-100 44-148h51" id="R"/><path fill="#333" d="M135-194c53 0 70 44 70 98 0 56-19 98-73 100-31 1-45-17-59-34 3 33 2 69 2 105H25l-1-265h48c2 10 0 23 3 31 11-24 29-35 60-35zM114-30c33 0 39-31 40-66 0-38-9-64-40-64-56 0-55 130 0 130" id="S"/><path fill="#333" d="M88-194c31-1 46 15 58 34l-1-101h50l1 261h-48c-2-10 0-23-3-31C134-8 116 4 84 4 32 4 16-41 15-95c0-56 19-97 73-99zm17 164c33 0 40-30 41-66 1-37-9-64-41-64s-38 30-39 65c0 43 13 65 39 65" id="T"/><path fill="#333" d="M133-34C117-15 103 5 69 4 32 3 11-16 11-54c-1-60 55-63 116-61 1-26-3-47-28-47-18 1-26 9-28 27l-52-2c7-38 36-58 82-57s74 22 75 68l1 82c-1 14 12 18 25 15v27c-30 8-71 5-69-32zm-48 3c29 0 43-24 42-57-32 0-66-3-65 30 0 17 8 27 23 27" id="U"/><path fill="#333" d="M115-3C79 11 28 4 28-45v-112H4v-33h27l15-45h31v45h36v33H77v99c-1 23 16 31 38 25v30" id="V"/><path fill="#333" d="M185-48c-13 30-37 53-82 52C43 2 14-33 14-96s30-98 90-98c62 0 83 45 84 108H66c0 31 8 55 39 56 18 0 30-7 34-22zm-45-69c5-46-57-63-70-21-2 6-4 13-4 21h74" id="W"/><g id="r"><use transform="matrix(0.04938271604938272,0,0,0.04938271604938272,0,0)" xlink:href="#Q"/><use transform="matrix(0.04938271604938272,0,0,0.04938271604938272,10.814814814814815,0)" xlink:href="#R"/><use transform="matrix(0.04938271604938272,0,0,0.04938271604938272,20.69135802469136,0)" xlink:href="#S"/><use transform="matrix(0.04938271604938272,0,0,0.04938271604938272,31.506172839506174,0)" xlink:href="#T"/><use transform="matrix(0.04938271604938272,0,0,0.04938271604938272,42.320987654320994,0)" xlink:href="#U"/><use transform="matrix(0.04938271604938272,0,0,0.04938271604938272,52.19753086419754,0)" xlink:href="#V"/><use transform="matrix(0.04938271604938272,0,0,0.04938271604938272,58.074074074074076,0)" xlink:href="#W"/></g><g id="s"><use transform="matrix(0.04938271604938272,0,0,0.04938271604938272,0,0)" xlink:href="#Q"/><use transform="matrix(0.04938271604938272,0,0,0.04938271604938272,10.814814814814815,0)" xlink:href="#S"/><use transform="matrix(0.04938271604938272,0,0,0.04938271604938272,21.62962962962963,0)" xlink:href="#T"/><use transform="matrix(0.04938271604938272,0,0,0.04938271604938272,32.44444444444444,0)" xlink:href="#U"/><use transform="matrix(0.04938271604938272,0,0,0.04938271604938272,42.32098765432099,0)" xlink:href="#V"/><use transform="matrix(0.04938271604938272,0,0,0.04938271604938272,48.19753086419753,0)" xlink:href="#W"/></g><use transform="matrix(0.06172839506172839,0,0,0.06172839506172839,0,0)" xlink:href="#N" id="t"/><use transform="matrix(0.07720146838870333,0,0,0.07720146838870333,0,0)" xlink:href="#J" id="u"/></defs></g></svg>